{"glyphs":{"0":{"ha":833,"x_min":92,"x_max":742,"o":"m 215 990 l 92 864 l 92 179 l 213 0 l 621 0 l 742 128 l 742 813 l 624 990 l 215 990 m 240 819 l 271 853 l 547 853 l 593 786 l 593 756 l 240 390 l 240 819 m 240 203 l 240 211 l 593 578 l 593 172 l 561 138 l 285 138 l 240 203 z "},"1":{"ha":833,"x_min":92,"x_max":742,"o":"m 354 990 l 104 735 l 185 617 l 343 781 l 343 138 l 92 138 l 92 0 l 742 0 l 742 138 l 493 138 l 493 990 l 354 990 z "},"2":{"ha":833,"x_min":89,"x_max":746,"o":"m 218 990 l 89 858 l 167 744 l 275 853 l 543 853 l 618 740 l 93 201 l 93 0 l 746 0 l 746 138 l 242 138 l 242 157 l 746 678 l 746 818 l 631 990 l 218 990 z "},"3":{"ha":833,"x_min":90,"x_max":743,"o":"m 90 990 l 90 853 l 558 853 l 301 588 l 301 468 l 508 468 l 596 344 l 596 178 l 556 138 l 90 138 l 90 0 l 617 0 l 743 133 l 743 368 l 596 588 l 492 588 l 743 849 l 743 990 l 90 990 z "},"4":{"ha":833,"x_min":47,"x_max":786,"o":"m 499 990 l 47 524 l 189 317 l 554 317 l 554 0 l 703 0 l 703 317 l 786 317 l 786 454 l 703 454 l 703 990 l 499 990 m 222 508 l 554 850 l 554 454 l 258 454 l 222 508 z "},"5":{"ha":833,"x_min":90,"x_max":743,"o":"m 90 990 l 90 665 l 167 551 l 508 551 l 594 428 l 594 178 l 554 138 l 90 138 l 90 0 l 617 0 l 743 132 l 743 451 l 581 689 l 246 689 l 239 703 l 239 853 l 715 853 l 715 990 l 90 990 z "},"6":{"ha":833,"x_min":92,"x_max":742,"o":"m 214 992 l 92 864 l 92 182 l 203 0 l 572 0 l 742 175 l 742 486 l 674 588 l 313 588 l 240 514 l 240 821 l 271 854 l 629 854 l 629 992 l 214 992 m 240 206 l 240 319 l 369 450 l 593 450 l 593 219 l 515 138 l 288 138 l 240 206 z "},"7":{"ha":833,"x_min":92,"x_max":742,"o":"m 92 990 l 92 853 l 593 853 l 593 828 l 201 428 l 201 0 l 350 0 l 350 385 l 742 785 l 742 990 l 92 990 z "},"8":{"ha":833,"x_min":92,"x_max":742,"o":"m 310 990 l 92 763 l 92 639 l 203 475 l 213 475 l 92 354 l 92 179 l 213 0 l 574 0 l 742 178 l 742 335 l 622 511 l 742 636 l 742 829 l 635 990 l 310 990 m 240 664 l 240 722 l 368 853 l 560 853 l 593 804 l 593 678 l 511 597 l 285 597 l 240 664 m 240 204 l 240 310 l 382 458 l 492 458 l 593 310 l 593 219 l 511 138 l 285 138 l 240 204 z "},"9":{"ha":833,"x_min":92,"x_max":742,"o":"m 171 990 l 92 908 l 92 682 l 247 450 l 593 450 l 593 260 l 488 138 l 147 138 l 147 0 l 550 0 l 742 217 l 742 756 l 585 990 l 171 990 m 240 708 l 240 853 l 510 853 l 593 729 l 593 588 l 319 588 l 240 708 z "},"A":{"ha":833,"x_min":111,"x_max":722,"o":"m 346 972 l 111 729 l 111 0 l 258 0 l 258 425 l 574 425 l 574 0 l 722 0 l 722 972 l 346 972 m 258 688 l 400 835 l 574 835 l 574 563 l 258 563 l 258 688 z "},"Á":{"ha":833,"x_min":111,"x_max":722,"o":"m 346 972 l 111 729 l 111 0 l 258 0 l 258 425 l 574 425 l 574 0 l 722 0 l 722 972 l 346 972 m 258 688 l 400 835 l 574 835 l 574 563 l 258 563 l 258 688 m 400 1025 l 704 1171 l 621 1289 l 346 1110 l 400 1025 z "},"Ă":{"ha":833,"x_min":111,"x_max":789,"o":"m 346 972 l 111 729 l 111 0 l 258 0 l 258 425 l 574 425 l 574 0 l 722 0 l 722 972 l 346 972 m 258 688 l 400 835 l 574 835 l 574 563 l 258 563 l 258 688 m 267 1178 l 267 1276 l 435 1276 l 435 1147 l 621 1147 l 621 1276 l 789 1276 l 789 1178 l 639 1028 l 418 1028 l 267 1178 z "},"Â":{"ha":833,"x_min":111,"x_max":772,"o":"m 346 972 l 111 729 l 111 0 l 258 0 l 258 425 l 574 425 l 574 0 l 722 0 l 722 972 l 346 972 m 258 688 l 400 835 l 574 835 l 574 563 l 258 563 l 258 688 m 565 1263 l 490 1263 l 283 1106 l 357 1024 l 528 1132 l 700 1024 l 772 1106 l 565 1263 z "},"Ä":{"ha":833,"x_min":111,"x_max":750,"o":"m 346 972 l 111 729 l 111 0 l 258 0 l 258 425 l 574 425 l 574 0 l 722 0 l 722 972 l 346 972 m 258 688 l 400 835 l 574 835 l 574 563 l 258 563 l 258 688 m 306 1028 l 306 1181 l 458 1181 l 458 1028 l 306 1028 m 597 1028 l 597 1181 l 750 1181 l 750 1028 l 597 1028 z "},"À":{"ha":833,"x_min":111,"x_max":722,"o":"m 346 972 l 111 729 l 111 0 l 258 0 l 258 425 l 574 425 l 574 0 l 722 0 l 722 972 l 346 972 m 258 688 l 400 835 l 574 835 l 574 563 l 258 563 l 258 688 m 656 1019 l 710 1104 l 435 1283 l 351 1165 l 656 1019 z "},"Ā":{"ha":833,"x_min":111,"x_max":728,"o":"m 346 972 l 111 729 l 111 0 l 258 0 l 258 425 l 574 425 l 574 0 l 722 0 l 722 972 l 346 972 m 258 688 l 400 835 l 574 835 l 574 563 l 258 563 l 258 688 m 728 1028 l 328 1028 l 328 1165 l 728 1165 l 728 1028 z "},"Ą":{"ha":833,"x_min":111,"x_max":722,"o":"m 346 972 l 111 729 l 111 0 l 258 0 l 258 425 l 574 425 l 574 0 l 722 0 l 722 972 l 346 972 m 258 688 l 400 835 l 574 835 l 574 563 l 258 563 l 258 688 m 722 -182 l 583 -182 l 722 0 l 583 14 l 464 -126 l 464 -197 l 575 -290 l 722 -290 l 722 -182 z "},"Å":{"ha":833,"x_min":111,"x_max":722,"o":"m 346 972 l 111 729 l 111 0 l 258 0 l 258 425 l 574 425 l 574 0 l 722 0 l 722 972 l 346 972 m 258 688 l 400 835 l 574 835 l 574 563 l 258 563 l 258 688 m 460 1342 l 369 1250 l 369 1118 l 460 1028 l 592 1028 l 686 1117 l 686 1250 l 592 1342 l 460 1342 m 500 1251 l 554 1251 l 594 1211 l 594 1156 l 554 1118 l 500 1118 l 461 1156 l 461 1211 l 500 1251 z "},"Ã":{"ha":833,"x_min":111,"x_max":824,"o":"m 346 972 l 111 729 l 111 0 l 258 0 l 258 425 l 574 425 l 574 0 l 722 0 l 722 972 l 346 972 m 258 688 l 400 835 l 574 835 l 574 563 l 258 563 l 258 688 m 764 1222 l 649 1153 l 393 1221 l 232 1125 l 292 1025 l 411 1100 l 663 1028 l 824 1124 l 764 1222 z "},"Æ":{"ha":833,"x_min":-3,"x_max":836,"o":"m 235 990 l -3 746 l -3 0 l 147 0 l 147 444 l 399 444 l 399 0 l 836 0 l 836 138 l 547 138 l 547 444 l 751 444 l 751 583 l 547 583 l 547 853 l 836 853 l 836 990 l 235 990 m 147 704 l 290 853 l 399 853 l 399 583 l 147 583 l 147 704 z "},"B":{"ha":833,"x_min":96,"x_max":747,"o":"m 96 972 l 96 0 l 624 0 l 747 76 l 747 367 l 610 569 l 588 569 l 735 724 l 735 865 l 660 972 l 96 972 m 244 835 l 585 835 l 585 767 l 396 569 l 244 569 l 244 835 m 244 432 l 538 432 l 600 344 l 600 138 l 244 138 l 244 432 z "},"C":{"ha":833,"x_min":111,"x_max":750,"o":"m 235 972 l 642 972 l 747 813 l 650 710 l 569 833 l 290 833 l 260 800 l 260 206 l 304 138 l 581 138 l 674 232 l 750 117 l 639 0 l 231 0 l 111 179 l 111 847 l 235 972 z "},"Ć":{"ha":833,"x_min":111,"x_max":750,"o":"m 235 972 l 642 972 l 747 813 l 650 710 l 569 833 l 290 833 l 260 800 l 260 206 l 304 138 l 581 138 l 674 232 l 750 117 l 639 0 l 231 0 l 111 179 l 111 847 l 235 972 m 289 1025 l 593 1171 l 510 1289 l 235 1110 l 289 1025 z "},"Č":{"ha":833,"x_min":111,"x_max":750,"o":"m 235 972 l 642 972 l 747 813 l 650 710 l 569 833 l 290 833 l 260 800 l 260 206 l 304 138 l 581 138 l 674 232 l 750 117 l 639 0 l 231 0 l 111 179 l 111 847 l 235 972 m 454 1026 l 661 1185 l 589 1265 l 417 1157 l 246 1265 l 172 1185 l 379 1026 l 454 1026 z "},"Ç":{"ha":833,"x_min":111,"x_max":750,"o":"m 235 972 l 642 972 l 747 813 l 650 710 l 569 833 l 290 833 l 260 800 l 260 206 l 304 138 l 581 138 l 674 232 l 750 117 l 639 0 l 231 0 l 111 179 l 111 847 l 235 972 m 329 -172 l 468 -172 l 329 10 l 479 10 l 588 -117 l 588 -187 l 476 -281 l 329 -281 l 329 -172 z "},"Ċ":{"ha":833,"x_min":111,"x_max":750,"o":"m 235 972 l 642 972 l 747 813 l 650 710 l 569 833 l 290 833 l 260 800 l 260 206 l 304 138 l 581 138 l 674 232 l 750 117 l 639 0 l 231 0 l 111 179 l 111 847 l 235 972 m 329 1029 l 329 1204 l 504 1204 l 504 1029 l 329 1029 z "},"D":{"ha":833,"x_min":104,"x_max":757,"o":"m 104 972 l 561 972 l 757 681 l 757 126 l 636 0 l 104 0 l 104 972 m 253 835 l 253 138 l 575 138 l 608 171 l 608 654 l 486 835 l 253 835 z "},"Ð":{"ha":833,"x_min":-1,"x_max":757,"o":"m 104 972 l 561 972 l 757 681 l 757 126 l 636 0 l 104 0 l 104 972 m 253 835 l 253 138 l 575 138 l 608 171 l 608 654 l 486 835 l 253 835 m 360 404 l -1 404 l -1 540 l 360 540 l 360 404 z "},"Ď":{"ha":833,"x_min":104,"x_max":757,"o":"m 104 972 l 561 972 l 757 681 l 757 126 l 636 0 l 104 0 l 104 972 m 253 835 l 253 138 l 575 138 l 608 171 l 608 654 l 486 835 l 253 835 m 454 1026 l 661 1185 l 589 1265 l 417 1157 l 246 1265 l 172 1185 l 379 1026 l 454 1026 z "},"Đ":{"ha":833,"x_min":-1,"x_max":757,"o":"m 104 972 l 561 972 l 757 681 l 757 126 l 636 0 l 104 0 l 104 972 m 253 835 l 253 138 l 575 138 l 608 171 l 608 654 l 486 835 l 253 835 m 360 404 l -1 404 l -1 540 l 360 540 l 360 404 z "},"E":{"ha":833,"x_min":81,"x_max":733,"o":"m 204 972 l 81 846 l 81 179 l 201 0 l 733 0 l 733 138 l 275 138 l 229 206 l 229 431 l 551 431 l 551 569 l 229 569 l 229 800 l 261 835 l 733 835 l 733 972 l 204 972 z "},"É":{"ha":833,"x_min":81,"x_max":733,"o":"m 204 972 l 81 846 l 81 179 l 201 0 l 733 0 l 733 138 l 275 138 l 229 206 l 229 431 l 551 431 l 551 569 l 229 569 l 229 800 l 261 835 l 733 835 l 733 972 l 204 972 m 289 1025 l 593 1171 l 510 1289 l 235 1110 l 289 1025 z "},"Ě":{"ha":833,"x_min":81,"x_max":733,"o":"m 204 972 l 81 846 l 81 179 l 201 0 l 733 0 l 733 138 l 275 138 l 229 206 l 229 431 l 551 431 l 551 569 l 229 569 l 229 800 l 261 835 l 733 835 l 733 972 l 204 972 m 454 1026 l 661 1185 l 589 1265 l 417 1157 l 246 1265 l 172 1185 l 379 1026 l 454 1026 z "},"Ê":{"ha":833,"x_min":81,"x_max":733,"o":"m 204 972 l 81 846 l 81 179 l 201 0 l 733 0 l 733 138 l 275 138 l 229 206 l 229 431 l 551 431 l 551 569 l 229 569 l 229 800 l 261 835 l 733 835 l 733 972 l 204 972 m 454 1263 l 379 1263 l 172 1106 l 246 1024 l 417 1132 l 589 1024 l 661 1106 l 454 1263 z "},"Ë":{"ha":833,"x_min":81,"x_max":733,"o":"m 204 972 l 81 846 l 81 179 l 201 0 l 733 0 l 733 138 l 275 138 l 229 206 l 229 431 l 551 431 l 551 569 l 229 569 l 229 800 l 261 835 l 733 835 l 733 972 l 204 972 m 194 1028 l 194 1181 l 347 1181 l 347 1028 l 194 1028 m 486 1028 l 486 1181 l 639 1181 l 639 1028 l 486 1028 z "},"Ė":{"ha":833,"x_min":81,"x_max":733,"o":"m 204 972 l 81 846 l 81 179 l 201 0 l 733 0 l 733 138 l 275 138 l 229 206 l 229 431 l 551 431 l 551 569 l 229 569 l 229 800 l 261 835 l 733 835 l 733 972 l 204 972 m 329 1029 l 329 1204 l 504 1204 l 504 1029 l 329 1029 z "},"È":{"ha":833,"x_min":81,"x_max":733,"o":"m 204 972 l 81 846 l 81 179 l 201 0 l 733 0 l 733 138 l 275 138 l 229 206 l 229 431 l 551 431 l 551 569 l 229 569 l 229 800 l 261 835 l 733 835 l 733 972 l 204 972 m 544 1019 l 599 1104 l 324 1283 l 240 1165 l 544 1019 z "},"Ē":{"ha":833,"x_min":81,"x_max":733,"o":"m 204 972 l 81 846 l 81 179 l 201 0 l 733 0 l 733 138 l 275 138 l 229 206 l 229 431 l 551 431 l 551 569 l 229 569 l 229 800 l 261 835 l 733 835 l 733 972 l 204 972 m 617 1028 l 217 1028 l 217 1165 l 617 1165 l 617 1028 z "},"Ę":{"ha":833,"x_min":81,"x_max":733,"o":"m 204 972 l 81 846 l 81 179 l 201 0 l 733 0 l 733 138 l 275 138 l 229 206 l 229 431 l 551 431 l 551 569 l 229 569 l 229 800 l 261 835 l 733 835 l 733 972 l 204 972 m 490 -168 l 351 -168 l 490 14 l 351 28 l 232 -112 l 232 -183 l 343 -276 l 490 -276 l 490 -168 z "},"F":{"ha":833,"x_min":124,"x_max":739,"o":"m 271 972 l 124 822 l 124 0 l 272 0 l 272 432 l 575 432 l 575 571 l 272 571 l 272 776 l 328 835 l 739 835 l 739 972 l 271 972 z "},"G":{"ha":833,"x_min":86,"x_max":738,"o":"m 208 972 l 86 844 l 86 172 l 201 0 l 738 0 l 738 488 l 672 586 l 393 586 l 393 450 l 589 450 l 589 138 l 275 138 l 236 199 l 236 801 l 267 835 l 542 835 l 624 713 l 721 813 l 614 972 l 208 972 z "},"Ğ":{"ha":833,"x_min":86,"x_max":738,"o":"m 208 972 l 86 844 l 86 172 l 201 0 l 738 0 l 738 488 l 672 586 l 393 586 l 393 450 l 589 450 l 589 138 l 275 138 l 236 199 l 236 801 l 267 835 l 542 835 l 624 713 l 721 813 l 614 972 l 208 972 m 156 1178 l 156 1276 l 324 1276 l 324 1147 l 510 1147 l 510 1276 l 678 1276 l 678 1178 l 528 1028 l 307 1028 l 156 1178 z "},"Ģ":{"ha":833,"x_min":86,"x_max":738,"o":"m 208 972 l 86 844 l 86 172 l 201 0 l 738 0 l 738 488 l 672 586 l 393 586 l 393 450 l 589 450 l 589 138 l 275 138 l 236 199 l 236 801 l 267 835 l 542 835 l 624 713 l 721 813 l 614 972 l 208 972 m 346 -422 l 546 -153 l 418 -85 l 256 -368 l 346 -422 z "},"Ġ":{"ha":833,"x_min":86,"x_max":738,"o":"m 208 972 l 86 844 l 86 172 l 201 0 l 738 0 l 738 488 l 672 586 l 393 586 l 393 450 l 589 450 l 589 138 l 275 138 l 236 199 l 236 801 l 267 835 l 542 835 l 624 713 l 721 813 l 614 972 l 208 972 m 329 1029 l 329 1204 l 504 1204 l 504 1029 l 329 1029 z "},"H":{"ha":833,"x_min":90,"x_max":743,"o":"m 90 972 l 239 972 l 239 536 l 329 588 l 506 588 l 594 536 l 594 972 l 743 972 l 743 0 l 594 0 l 594 386 l 550 450 l 268 450 l 239 419 l 239 0 l 90 0 l 90 972 z "},"Ħ":{"ha":833,"x_min":0,"x_max":833,"o":"m 90 972 l 239 972 l 239 536 l 329 588 l 506 588 l 594 536 l 594 972 l 743 972 l 743 0 l 594 0 l 594 386 l 550 450 l 268 450 l 239 419 l 239 0 l 90 0 l 90 972 m 833 696 l 0 696 l 0 832 l 833 832 l 833 696 z "},"I":{"ha":833,"x_min":90,"x_max":743,"o":"m 90 972 l 90 833 l 342 833 l 342 139 l 90 139 l 90 0 l 743 0 l 743 139 l 490 139 l 490 833 l 743 833 l 743 972 l 90 972 z "},"Ĳ":{"ha":833,"x_min":25,"x_max":808,"o":"m 25 993 l 25 856 l 214 856 l 258 788 l 258 0 l 407 0 l 407 801 l 458 856 l 633 856 l 594 801 l 594 57 l 450 -97 l 258 -97 l 258 -235 l 508 -235 l 742 13 l 742 856 l 808 856 l 808 993 l 401 993 l 336 924 l 286 993 l 25 993 z "},"Í":{"ha":833,"x_min":90,"x_max":743,"o":"m 90 972 l 90 833 l 342 833 l 342 139 l 90 139 l 90 0 l 743 0 l 743 139 l 490 139 l 490 833 l 743 833 l 743 972 l 90 972 m 289 1058 l 593 1204 l 510 1322 l 235 1143 l 289 1058 z "},"Î":{"ha":833,"x_min":90,"x_max":743,"o":"m 90 972 l 90 833 l 342 833 l 342 139 l 90 139 l 90 0 l 743 0 l 743 139 l 490 139 l 490 833 l 743 833 l 743 972 l 90 972 m 454 1296 l 379 1296 l 172 1139 l 246 1057 l 417 1165 l 589 1057 l 661 1139 l 454 1296 z "},"Ï":{"ha":833,"x_min":90,"x_max":743,"o":"m 90 972 l 90 833 l 342 833 l 342 139 l 90 139 l 90 0 l 743 0 l 743 139 l 490 139 l 490 833 l 743 833 l 743 972 l 90 972 m 194 1061 l 194 1214 l 347 1214 l 347 1061 l 194 1061 m 486 1061 l 486 1214 l 639 1214 l 639 1061 l 486 1061 z "},"İ":{"ha":833,"x_min":90,"x_max":743,"o":"m 90 972 l 90 833 l 342 833 l 342 139 l 90 139 l 90 0 l 743 0 l 743 139 l 490 139 l 490 833 l 743 833 l 743 972 l 90 972 m 329 1063 l 329 1238 l 504 1238 l 504 1063 l 329 1063 z "},"Ì":{"ha":833,"x_min":90,"x_max":743,"o":"m 90 972 l 90 833 l 342 833 l 342 139 l 90 139 l 90 0 l 743 0 l 743 139 l 490 139 l 490 833 l 743 833 l 743 972 l 90 972 m 544 1053 l 599 1138 l 324 1317 l 240 1199 l 544 1053 z "},"Ī":{"ha":833,"x_min":90,"x_max":743,"o":"m 90 972 l 90 833 l 342 833 l 342 139 l 90 139 l 90 0 l 743 0 l 743 139 l 490 139 l 490 833 l 743 833 l 743 972 l 90 972 m 617 1061 l 217 1061 l 217 1199 l 617 1199 l 617 1061 z "},"Į":{"ha":833,"x_min":90,"x_max":743,"o":"m 90 972 l 90 833 l 342 833 l 342 139 l 90 139 l 90 0 l 743 0 l 743 139 l 490 139 l 490 833 l 743 833 l 743 972 l 90 972 m 490 -168 l 351 -168 l 490 14 l 351 28 l 232 -112 l 232 -183 l 343 -276 l 490 -276 l 490 -168 z "},"J":{"ha":833,"x_min":138,"x_max":696,"o":"m 138 972 l 138 833 l 547 833 l 547 189 l 403 38 l 249 38 l 249 -101 l 463 -101 l 696 146 l 696 972 l 138 972 z "},"K":{"ha":833,"x_min":42,"x_max":792,"o":"m 583 972 l 192 572 l 192 972 l 42 972 l 42 0 l 192 0 l 192 372 l 299 482 l 629 0 l 792 0 l 401 582 l 781 972 l 583 972 z "},"Ķ":{"ha":833,"x_min":42,"x_max":792,"o":"m 583 972 l 192 572 l 192 972 l 42 972 l 42 0 l 192 0 l 192 372 l 299 482 l 629 0 l 792 0 l 401 582 l 781 972 l 583 972 m 346 -422 l 546 -153 l 418 -85 l 256 -368 l 346 -422 z "},"L":{"ha":833,"x_min":90,"x_max":743,"o":"m 90 972 l 90 185 l 213 0 l 743 0 l 743 239 l 594 239 l 594 139 l 286 139 l 239 207 l 239 972 l 90 972 z "},"Ĺ":{"ha":833,"x_min":-17,"x_max":743,"o":"m 90 972 l 90 185 l 213 0 l 743 0 l 743 239 l 594 239 l 594 139 l 286 139 l 239 207 l 239 972 l 90 972 m 38 1039 l 342 1185 l 258 1303 l -17 1124 l 38 1039 z "},"Ľ":{"ha":833,"x_min":90,"x_max":743,"o":"m 90 972 l 90 185 l 213 0 l 743 0 l 743 239 l 594 239 l 594 139 l 286 139 l 239 207 l 239 972 l 90 972 m 486 1019 l 665 996 l 557 674 l 435 696 l 486 1019 z "},"Ļ":{"ha":833,"x_min":90,"x_max":743,"o":"m 90 972 l 90 185 l 213 0 l 743 0 l 743 239 l 594 239 l 594 139 l 286 139 l 239 207 l 239 972 l 90 972 m 346 -422 l 546 -153 l 418 -85 l 256 -368 l 346 -422 z "},"Ł":{"ha":833,"x_min":90,"x_max":743,"o":"m 90 972 l 90 185 l 213 0 l 743 0 l 743 239 l 594 239 l 594 139 l 286 139 l 239 207 l 239 972 l 90 972 m 508 897 l 169 -101 l 297 -144 l 638 854 l 508 897 z "},"M":{"ha":833,"x_min":92,"x_max":743,"o":"m 92 972 l 92 0 l 240 0 l 240 724 l 354 554 l 354 538 l 475 538 l 475 639 l 594 772 l 594 0 l 743 0 l 743 972 l 594 972 l 386 732 l 240 949 l 240 972 l 92 972 z "},"N":{"ha":833,"x_min":92,"x_max":743,"o":"m 594 972 l 594 578 l 339 972 l 92 972 l 92 0 l 240 0 l 240 815 l 265 815 l 594 328 l 594 0 l 743 0 l 743 972 l 594 972 z "},"Ń":{"ha":833,"x_min":92,"x_max":743,"o":"m 594 972 l 594 578 l 339 972 l 92 972 l 92 0 l 240 0 l 240 815 l 265 815 l 594 328 l 594 0 l 743 0 l 743 972 l 594 972 m 289 1025 l 593 1171 l 510 1289 l 235 1110 l 289 1025 z "},"Ň":{"ha":833,"x_min":92,"x_max":743,"o":"m 594 972 l 594 578 l 339 972 l 92 972 l 92 0 l 240 0 l 240 815 l 265 815 l 594 328 l 594 0 l 743 0 l 743 972 l 594 972 m 454 1026 l 661 1185 l 589 1265 l 417 1157 l 246 1265 l 172 1185 l 379 1026 l 454 1026 z "},"Ņ":{"ha":833,"x_min":92,"x_max":743,"o":"m 594 972 l 594 578 l 339 972 l 92 972 l 92 0 l 240 0 l 240 815 l 265 815 l 594 328 l 594 0 l 743 0 l 743 972 l 594 972 m 346 -422 l 546 -153 l 418 -85 l 256 -368 l 346 -422 z "},"Ñ":{"ha":833,"x_min":92,"x_max":743,"o":"m 594 972 l 594 578 l 339 972 l 92 972 l 92 0 l 240 0 l 240 815 l 265 815 l 594 328 l 594 0 l 743 0 l 743 972 l 594 972 m 653 1222 l 538 1153 l 282 1221 l 121 1125 l 181 1025 l 300 1100 l 551 1028 l 713 1124 l 653 1222 z "},"O":{"ha":833,"x_min":90,"x_max":743,"o":"m 214 972 l 625 972 l 743 793 l 743 128 l 622 0 l 213 0 l 90 179 l 90 844 l 214 972 m 240 204 l 285 138 l 561 138 l 593 172 l 593 768 l 549 835 l 271 835 l 240 800 l 240 204 z "},"Ó":{"ha":833,"x_min":90,"x_max":743,"o":"m 214 972 l 625 972 l 743 793 l 743 128 l 622 0 l 213 0 l 90 179 l 90 844 l 214 972 m 240 204 l 285 138 l 561 138 l 593 172 l 593 768 l 549 835 l 271 835 l 240 800 l 240 204 m 289 1025 l 593 1171 l 510 1289 l 235 1110 l 289 1025 z "},"Ô":{"ha":833,"x_min":90,"x_max":743,"o":"m 214 972 l 625 972 l 743 793 l 743 128 l 622 0 l 213 0 l 90 179 l 90 844 l 214 972 m 240 204 l 285 138 l 561 138 l 593 172 l 593 768 l 549 835 l 271 835 l 240 800 l 240 204 m 454 1263 l 379 1263 l 172 1106 l 246 1024 l 417 1132 l 589 1024 l 661 1106 l 454 1263 z "},"Ö":{"ha":833,"x_min":90,"x_max":743,"o":"m 214 972 l 625 972 l 743 793 l 743 128 l 622 0 l 213 0 l 90 179 l 90 844 l 214 972 m 240 204 l 285 138 l 561 138 l 593 172 l 593 768 l 549 835 l 271 835 l 240 800 l 240 204 m 194 1028 l 194 1181 l 347 1181 l 347 1028 l 194 1028 m 486 1028 l 486 1181 l 639 1181 l 639 1028 l 486 1028 z "},"Ò":{"ha":833,"x_min":90,"x_max":743,"o":"m 214 972 l 625 972 l 743 793 l 743 128 l 622 0 l 213 0 l 90 179 l 90 844 l 214 972 m 240 204 l 285 138 l 561 138 l 593 172 l 593 768 l 549 835 l 271 835 l 240 800 l 240 204 m 544 1019 l 599 1104 l 324 1283 l 240 1165 l 544 1019 z "},"Ő":{"ha":833,"x_min":90,"x_max":769,"o":"m 214 972 l 625 972 l 743 793 l 743 128 l 622 0 l 213 0 l 90 179 l 90 844 l 214 972 m 240 204 l 285 138 l 561 138 l 593 172 l 593 768 l 549 835 l 271 835 l 240 800 l 240 204 m 310 1024 l 514 1292 l 385 1361 l 221 1078 l 310 1024 m 536 1024 l 769 1265 l 650 1350 l 456 1086 l 536 1024 z "},"Ø":{"ha":833,"x_min":90,"x_max":743,"o":"m 214 972 l 625 972 l 743 793 l 743 128 l 622 0 l 213 0 l 90 179 l 90 844 l 214 972 m 240 204 l 285 138 l 561 138 l 593 172 l 593 768 l 549 835 l 271 835 l 240 800 l 240 204 m 578 1103 l 707 1060 l 293 -157 l 165 -114 l 578 1103 z "},"Õ":{"ha":833,"x_min":90,"x_max":743,"o":"m 214 972 l 625 972 l 743 793 l 743 128 l 622 0 l 213 0 l 90 179 l 90 844 l 214 972 m 240 204 l 285 138 l 561 138 l 593 172 l 593 768 l 549 835 l 271 835 l 240 800 l 240 204 m 653 1222 l 538 1153 l 282 1221 l 121 1125 l 181 1025 l 300 1100 l 551 1028 l 713 1124 l 653 1222 z "},"Œ":{"ha":833,"x_min":-3,"x_max":836,"o":"m 147 819 l 178 853 l 354 853 l 399 786 l 399 172 l 367 138 l 192 138 l 147 204 l 147 819 m 547 450 l 751 450 l 751 588 l 547 588 l 547 811 l 519 853 l 836 853 l 836 990 l 121 990 l -3 864 l -3 179 l 119 0 l 836 0 l 836 138 l 526 138 l 547 158 l 547 450 z "},"P":{"ha":833,"x_min":90,"x_max":743,"o":"m 90 972 l 90 0 l 239 0 l 239 431 l 622 431 l 743 554 l 743 793 l 624 972 l 90 972 m 240 835 l 549 835 l 594 767 l 594 599 l 563 565 l 329 565 l 240 514 l 240 835 z "},"Þ":{"ha":833,"x_min":92,"x_max":742,"o":"m 92 1033 l 92 0 l 239 0 l 239 189 l 331 138 l 618 138 l 742 265 l 742 686 l 621 868 l 326 868 l 239 815 l 239 1033 l 92 1033 m 239 696 l 272 729 l 549 729 l 594 663 l 594 308 l 563 276 l 239 276 l 239 696 z "},"Q":{"ha":833,"x_min":92,"x_max":742,"o":"m 217 972 l 92 844 l 92 179 l 213 0 l 571 0 l 617 -64 l 729 14 l 544 288 l 432 208 l 481 138 l 285 138 l 240 206 l 240 801 l 269 833 l 549 833 l 593 769 l 593 222 l 742 378 l 742 793 l 619 972 l 217 972 z "},"R":{"ha":833,"x_min":90,"x_max":743,"o":"m 90 972 l 90 0 l 239 0 l 239 482 l 325 428 l 463 428 l 594 238 l 594 0 l 743 0 l 743 261 l 613 451 l 743 586 l 743 742 l 585 972 l 90 972 m 239 835 l 511 835 l 594 714 l 594 628 l 535 567 l 239 567 l 239 835 z "},"Ŕ":{"ha":833,"x_min":90,"x_max":743,"o":"m 90 972 l 90 0 l 239 0 l 239 482 l 325 428 l 463 428 l 594 238 l 594 0 l 743 0 l 743 261 l 613 451 l 743 586 l 743 742 l 585 972 l 90 972 m 239 835 l 511 835 l 594 714 l 594 628 l 535 567 l 239 567 l 239 835 m 289 1025 l 593 1171 l 510 1289 l 235 1110 l 289 1025 z "},"Ř":{"ha":833,"x_min":90,"x_max":743,"o":"m 90 972 l 90 0 l 239 0 l 239 482 l 325 428 l 463 428 l 594 238 l 594 0 l 743 0 l 743 261 l 613 451 l 743 586 l 743 742 l 585 972 l 90 972 m 239 835 l 511 835 l 594 714 l 594 628 l 535 567 l 239 567 l 239 835 m 454 1026 l 661 1185 l 589 1265 l 417 1157 l 246 1265 l 172 1185 l 379 1026 l 454 1026 z "},"S":{"ha":833,"x_min":88,"x_max":746,"o":"m 215 972 l 626 972 l 715 838 l 615 740 l 551 835 l 272 835 l 242 801 l 242 633 l 289 567 l 639 567 l 746 406 l 746 113 l 638 0 l 163 0 l 88 107 l 183 207 l 235 138 l 575 138 l 597 156 l 597 382 l 564 428 l 214 428 l 93 607 l 93 844 l 215 972 z "},"Ś":{"ha":833,"x_min":88,"x_max":746,"o":"m 215 972 l 626 972 l 715 838 l 615 740 l 551 835 l 272 835 l 242 801 l 242 633 l 289 567 l 639 567 l 746 406 l 746 113 l 638 0 l 163 0 l 88 107 l 183 207 l 235 138 l 575 138 l 597 156 l 597 382 l 564 428 l 214 428 l 93 607 l 93 844 l 215 972 m 289 1025 l 593 1171 l 510 1289 l 235 1110 l 289 1025 z "},"Š":{"ha":833,"x_min":88,"x_max":746,"o":"m 215 972 l 626 972 l 715 838 l 615 740 l 551 835 l 272 835 l 242 801 l 242 633 l 289 567 l 639 567 l 746 406 l 746 113 l 638 0 l 163 0 l 88 107 l 183 207 l 235 138 l 575 138 l 597 156 l 597 382 l 564 428 l 214 428 l 93 607 l 93 844 l 215 972 m 454 1026 l 661 1185 l 589 1265 l 417 1157 l 246 1265 l 172 1185 l 379 1026 l 454 1026 z "},"Ş":{"ha":833,"x_min":88,"x_max":746,"o":"m 215 972 l 626 972 l 715 838 l 615 740 l 551 835 l 272 835 l 242 801 l 242 633 l 289 567 l 639 567 l 746 406 l 746 113 l 638 0 l 163 0 l 88 107 l 183 207 l 235 138 l 575 138 l 597 156 l 597 382 l 564 428 l 214 428 l 93 607 l 93 844 l 215 972 m 329 -172 l 468 -172 l 329 10 l 479 10 l 588 -117 l 588 -187 l 476 -281 l 329 -281 l 329 -172 z "},"Ș":{"ha":833,"x_min":88,"x_max":746,"o":"m 215 972 l 626 972 l 715 838 l 615 740 l 551 835 l 272 835 l 242 801 l 242 633 l 289 567 l 639 567 l 746 406 l 746 113 l 638 0 l 163 0 l 88 107 l 183 207 l 235 138 l 575 138 l 597 156 l 597 382 l 564 428 l 214 428 l 93 607 l 93 844 l 215 972 m 346 -422 l 546 -153 l 418 -85 l 256 -368 l 346 -422 z "},"ẞ":{"ha":833,"x_min":90,"x_max":743,"o":"m 324 1010 l 90 768 l 90 0 l 239 0 l 239 722 l 382 872 l 556 872 l 300 607 l 300 468 l 510 468 l 593 344 l 593 178 l 557 138 l 396 138 l 396 0 l 614 0 l 742 133 l 742 368 l 582 607 l 492 607 l 743 868 l 743 1010 l 324 1010 z "},"T":{"ha":833,"x_min":54,"x_max":779,"o":"m 54 972 l 779 972 l 779 835 l 394 835 l 492 757 l 492 0 l 343 0 l 343 726 l 299 835 l 54 835 l 54 972 z "},"Ť":{"ha":833,"x_min":54,"x_max":779,"o":"m 54 972 l 779 972 l 779 835 l 394 835 l 492 757 l 492 0 l 343 0 l 343 726 l 299 835 l 54 835 l 54 972 m 454 1026 l 661 1185 l 589 1265 l 417 1157 l 246 1265 l 172 1185 l 379 1026 l 454 1026 z "},"Ț":{"ha":833,"x_min":54,"x_max":779,"o":"m 54 972 l 779 972 l 779 835 l 394 835 l 492 757 l 492 0 l 343 0 l 343 726 l 299 835 l 54 835 l 54 972 m 346 -422 l 546 -153 l 418 -85 l 256 -368 l 346 -422 z "},"U":{"ha":833,"x_min":90,"x_max":743,"o":"m 594 972 l 594 172 l 561 138 l 283 138 l 239 206 l 239 972 l 90 972 l 90 179 l 211 0 l 506 0 l 594 54 l 594 0 l 743 0 l 743 972 l 594 972 z "},"Ú":{"ha":833,"x_min":90,"x_max":743,"o":"m 594 972 l 594 172 l 561 138 l 283 138 l 239 206 l 239 972 l 90 972 l 90 179 l 211 0 l 506 0 l 594 54 l 594 0 l 743 0 l 743 972 l 594 972 m 289 1025 l 593 1171 l 510 1289 l 235 1110 l 289 1025 z "},"Û":{"ha":833,"x_min":90,"x_max":743,"o":"m 594 972 l 594 172 l 561 138 l 283 138 l 239 206 l 239 972 l 90 972 l 90 179 l 211 0 l 506 0 l 594 54 l 594 0 l 743 0 l 743 972 l 594 972 m 454 1263 l 379 1263 l 172 1106 l 246 1024 l 417 1132 l 589 1024 l 661 1106 l 454 1263 z "},"Ü":{"ha":833,"x_min":90,"x_max":743,"o":"m 594 972 l 594 172 l 561 138 l 283 138 l 239 206 l 239 972 l 90 972 l 90 179 l 211 0 l 506 0 l 594 54 l 594 0 l 743 0 l 743 972 l 594 972 m 194 1028 l 194 1181 l 347 1181 l 347 1028 l 194 1028 m 486 1028 l 486 1181 l 639 1181 l 639 1028 l 486 1028 z "},"Ù":{"ha":833,"x_min":90,"x_max":743,"o":"m 594 972 l 594 172 l 561 138 l 283 138 l 239 206 l 239 972 l 90 972 l 90 179 l 211 0 l 506 0 l 594 54 l 594 0 l 743 0 l 743 972 l 594 972 m 544 1019 l 599 1104 l 324 1283 l 240 1165 l 544 1019 z "},"Ű":{"ha":833,"x_min":90,"x_max":769,"o":"m 594 972 l 594 172 l 561 138 l 283 138 l 239 206 l 239 972 l 90 972 l 90 179 l 211 0 l 506 0 l 594 54 l 594 0 l 743 0 l 743 972 l 594 972 m 310 1024 l 514 1292 l 385 1361 l 221 1078 l 310 1024 m 536 1024 l 769 1265 l 650 1350 l 456 1086 l 536 1024 z "},"Ū":{"ha":833,"x_min":90,"x_max":743,"o":"m 594 972 l 594 172 l 561 138 l 283 138 l 239 206 l 239 972 l 90 972 l 90 179 l 211 0 l 506 0 l 594 54 l 594 0 l 743 0 l 743 972 l 594 972 m 617 1028 l 217 1028 l 217 1165 l 617 1165 l 617 1028 z "},"Ų":{"ha":833,"x_min":90,"x_max":743,"o":"m 594 972 l 594 172 l 561 138 l 283 138 l 239 206 l 239 972 l 90 972 l 90 179 l 211 0 l 506 0 l 594 54 l 594 0 l 743 0 l 743 972 l 594 972 m 743 -182 l 604 -182 l 743 0 l 604 14 l 485 -126 l 485 -197 l 596 -290 l 743 -290 l 743 -182 z "},"Ů":{"ha":833,"x_min":90,"x_max":743,"o":"m 594 972 l 594 172 l 561 138 l 283 138 l 239 206 l 239 972 l 90 972 l 90 179 l 211 0 l 506 0 l 594 54 l 594 0 l 743 0 l 743 972 l 594 972 m 349 1342 l 258 1250 l 258 1118 l 349 1028 l 481 1028 l 575 1117 l 575 1250 l 481 1342 l 349 1342 m 389 1251 l 443 1251 l 483 1211 l 483 1156 l 443 1118 l 389 1118 l 350 1156 l 350 1211 l 389 1251 z "},"V":{"ha":833,"x_min":92,"x_max":742,"o":"m 593 972 l 593 368 l 382 147 l 240 358 l 240 972 l 92 972 l 92 332 l 315 0 l 431 0 l 742 326 l 742 972 l 593 972 z "},"W":{"ha":833,"x_min":63,"x_max":769,"o":"m 63 972 l 63 221 l 210 0 l 335 0 l 424 96 l 483 0 l 613 0 l 769 163 l 769 972 l 621 972 l 621 221 l 569 164 l 554 164 l 490 264 l 490 593 l 342 593 l 342 222 l 283 165 l 268 165 l 211 251 l 211 972 l 63 972 z "},"Ẃ":{"ha":833,"x_min":63,"x_max":769,"o":"m 63 972 l 63 221 l 210 0 l 335 0 l 424 96 l 483 0 l 613 0 l 769 163 l 769 972 l 621 972 l 621 221 l 569 164 l 554 164 l 490 264 l 490 593 l 342 593 l 342 222 l 283 165 l 268 165 l 211 251 l 211 972 l 63 972 m 289 1025 l 593 1171 l 510 1289 l 235 1110 l 289 1025 z "},"Ŵ":{"ha":833,"x_min":63,"x_max":769,"o":"m 63 972 l 63 221 l 210 0 l 335 0 l 424 96 l 483 0 l 613 0 l 769 163 l 769 972 l 621 972 l 621 221 l 569 164 l 554 164 l 490 264 l 490 593 l 342 593 l 342 222 l 283 165 l 268 165 l 211 251 l 211 972 l 63 972 m 454 1263 l 379 1263 l 172 1106 l 246 1024 l 417 1132 l 589 1024 l 661 1106 l 454 1263 z "},"Ẅ":{"ha":833,"x_min":63,"x_max":769,"o":"m 63 972 l 63 221 l 210 0 l 335 0 l 424 96 l 483 0 l 613 0 l 769 163 l 769 972 l 621 972 l 621 221 l 569 164 l 554 164 l 490 264 l 490 593 l 342 593 l 342 222 l 283 165 l 268 165 l 211 251 l 211 972 l 63 972 m 194 1028 l 194 1181 l 347 1181 l 347 1028 l 194 1028 m 486 1028 l 486 1181 l 639 1181 l 639 1028 l 486 1028 z "},"Ẁ":{"ha":833,"x_min":63,"x_max":769,"o":"m 63 972 l 63 221 l 210 0 l 335 0 l 424 96 l 483 0 l 613 0 l 769 163 l 769 972 l 621 972 l 621 221 l 569 164 l 554 164 l 490 264 l 490 593 l 342 593 l 342 222 l 283 165 l 268 165 l 211 251 l 211 972 l 63 972 m 544 1019 l 599 1104 l 324 1283 l 240 1165 l 544 1019 z "},"X":{"ha":833,"x_min":108,"x_max":725,"o":"m 575 972 l 575 729 l 424 571 l 329 571 l 257 681 l 257 972 l 108 972 l 108 654 l 243 457 l 108 319 l 108 0 l 257 0 l 257 275 l 410 433 l 500 433 l 575 328 l 575 0 l 725 0 l 725 354 l 590 551 l 725 688 l 725 972 l 575 972 z "},"Y":{"ha":833,"x_min":90,"x_max":742,"o":"m 593 972 l 742 972 l 742 718 l 490 457 l 490 0 l 342 0 l 342 447 l 90 821 l 90 972 l 239 972 l 239 843 l 415 581 l 418 581 l 593 763 l 593 972 z "},"Ý":{"ha":833,"x_min":90,"x_max":742,"o":"m 593 972 l 742 972 l 742 718 l 490 457 l 490 0 l 342 0 l 342 447 l 90 821 l 90 972 l 239 972 l 239 843 l 415 581 l 418 581 l 593 763 l 593 972 m 289 1025 l 593 1171 l 510 1289 l 235 1110 l 289 1025 z "},"Ŷ":{"ha":833,"x_min":90,"x_max":742,"o":"m 593 972 l 742 972 l 742 718 l 490 457 l 490 0 l 342 0 l 342 447 l 90 821 l 90 972 l 239 972 l 239 843 l 415 581 l 418 581 l 593 763 l 593 972 m 454 1263 l 379 1263 l 172 1106 l 246 1024 l 417 1132 l 589 1024 l 661 1106 l 454 1263 z "},"Ÿ":{"ha":833,"x_min":90,"x_max":742,"o":"m 593 972 l 742 972 l 742 718 l 490 457 l 490 0 l 342 0 l 342 447 l 90 821 l 90 972 l 239 972 l 239 843 l 415 581 l 418 581 l 593 763 l 593 972 m 194 1028 l 194 1181 l 347 1181 l 347 1028 l 194 1028 m 486 1028 l 486 1181 l 639 1181 l 639 1028 l 486 1028 z "},"Ỳ":{"ha":833,"x_min":90,"x_max":742,"o":"m 593 972 l 742 972 l 742 718 l 490 457 l 490 0 l 342 0 l 342 447 l 90 821 l 90 972 l 239 972 l 239 843 l 415 581 l 418 581 l 593 763 l 593 972 m 544 1019 l 599 1104 l 324 1283 l 240 1165 l 544 1019 z "},"Z":{"ha":833,"x_min":90,"x_max":743,"o":"m 90 972 l 90 835 l 594 835 l 594 749 l 463 610 l 497 588 l 272 588 l 272 450 l 306 450 l 90 226 l 90 0 l 743 0 l 743 138 l 239 138 l 239 186 l 476 431 l 444 450 l 650 450 l 650 588 l 633 588 l 743 704 l 743 972 l 90 972 z "},"Ź":{"ha":833,"x_min":90,"x_max":743,"o":"m 90 972 l 90 835 l 594 835 l 594 749 l 463 610 l 497 588 l 272 588 l 272 450 l 306 450 l 90 226 l 90 0 l 743 0 l 743 138 l 239 138 l 239 186 l 476 431 l 444 450 l 650 450 l 650 588 l 633 588 l 743 704 l 743 972 l 90 972 m 289 1025 l 593 1171 l 510 1289 l 235 1110 l 289 1025 z "},"Ž":{"ha":833,"x_min":90,"x_max":743,"o":"m 90 972 l 90 835 l 594 835 l 594 749 l 463 610 l 497 588 l 272 588 l 272 450 l 306 450 l 90 226 l 90 0 l 743 0 l 743 138 l 239 138 l 239 186 l 476 431 l 444 450 l 650 450 l 650 588 l 633 588 l 743 704 l 743 972 l 90 972 m 454 1026 l 661 1185 l 589 1265 l 417 1157 l 246 1265 l 172 1185 l 379 1026 l 454 1026 z "},"Ż":{"ha":833,"x_min":90,"x_max":743,"o":"m 90 972 l 90 835 l 594 835 l 594 749 l 463 610 l 497 588 l 272 588 l 272 450 l 306 450 l 90 226 l 90 0 l 743 0 l 743 138 l 239 138 l 239 186 l 476 431 l 444 450 l 650 450 l 650 588 l 633 588 l 743 704 l 743 972 l 90 972 m 329 1029 l 329 1204 l 504 1204 l 504 1029 l 329 1029 z "},"a":{"ha":833,"x_min":86,"x_max":747,"o":"m 199 768 l 199 631 l 596 631 l 596 481 l 307 481 l 86 250 l 86 182 l 208 0 l 507 0 l 596 54 l 596 0 l 747 0 l 747 629 l 653 768 l 199 768 m 240 207 l 240 213 l 364 339 l 593 339 l 593 140 l 276 140 l 240 207 z "},"á":{"ha":833,"x_min":86,"x_max":747,"o":"m 199 768 l 199 631 l 596 631 l 596 481 l 307 481 l 86 250 l 86 182 l 208 0 l 507 0 l 596 54 l 596 0 l 747 0 l 747 629 l 653 768 l 199 768 m 240 207 l 240 213 l 364 339 l 593 339 l 593 140 l 276 140 l 240 207 m 307 844 l 611 990 l 528 1108 l 253 929 l 307 844 z "},"ă":{"ha":833,"x_min":86,"x_max":747,"o":"m 199 768 l 199 631 l 596 631 l 596 481 l 307 481 l 86 250 l 86 182 l 208 0 l 507 0 l 596 54 l 596 0 l 747 0 l 747 629 l 653 768 l 199 768 m 240 207 l 240 213 l 364 339 l 593 339 l 593 140 l 276 140 l 240 207 m 174 997 l 174 1096 l 342 1096 l 342 967 l 528 967 l 528 1096 l 696 1096 l 696 997 l 546 847 l 325 847 l 174 997 z "},"â":{"ha":833,"x_min":86,"x_max":747,"o":"m 199 768 l 199 631 l 596 631 l 596 481 l 307 481 l 86 250 l 86 182 l 208 0 l 507 0 l 596 54 l 596 0 l 747 0 l 747 629 l 653 768 l 199 768 m 240 207 l 240 213 l 364 339 l 593 339 l 593 140 l 276 140 l 240 207 m 472 1081 l 397 1081 l 190 924 l 264 842 l 435 950 l 607 842 l 679 924 l 472 1081 z "},"ä":{"ha":833,"x_min":86,"x_max":747,"o":"m 199 768 l 199 631 l 596 631 l 596 481 l 307 481 l 86 250 l 86 182 l 208 0 l 507 0 l 596 54 l 596 0 l 747 0 l 747 629 l 653 768 l 199 768 m 240 207 l 240 213 l 364 339 l 593 339 l 593 140 l 276 140 l 240 207 m 213 846 l 213 999 l 365 999 l 365 846 l 213 846 m 504 846 l 504 999 l 657 999 l 657 846 l 504 846 z "},"à":{"ha":833,"x_min":86,"x_max":747,"o":"m 199 768 l 199 631 l 596 631 l 596 481 l 307 481 l 86 250 l 86 182 l 208 0 l 507 0 l 596 54 l 596 0 l 747 0 l 747 629 l 653 768 l 199 768 m 240 207 l 240 213 l 364 339 l 593 339 l 593 140 l 276 140 l 240 207 m 563 839 l 617 924 l 342 1103 l 258 985 l 563 839 z "},"ā":{"ha":833,"x_min":86,"x_max":747,"o":"m 199 768 l 199 631 l 596 631 l 596 481 l 307 481 l 86 250 l 86 182 l 208 0 l 507 0 l 596 54 l 596 0 l 747 0 l 747 629 l 653 768 l 199 768 m 240 207 l 240 213 l 364 339 l 593 339 l 593 140 l 276 140 l 240 207 m 635 847 l 235 847 l 235 985 l 635 985 l 635 847 z "},"ą":{"ha":833,"x_min":86,"x_max":747,"o":"m 199 768 l 199 631 l 596 631 l 596 481 l 307 481 l 86 250 l 86 182 l 208 0 l 507 0 l 596 54 l 596 0 l 747 0 l 747 629 l 653 768 l 199 768 m 240 207 l 240 213 l 364 339 l 593 339 l 593 140 l 276 140 l 240 207 m 747 -182 l 608 -182 l 747 0 l 608 14 l 489 -126 l 489 -197 l 600 -290 l 747 -290 l 747 -182 z "},"å":{"ha":833,"x_min":86,"x_max":747,"o":"m 199 768 l 199 631 l 596 631 l 596 481 l 307 481 l 86 250 l 86 182 l 208 0 l 507 0 l 596 54 l 596 0 l 747 0 l 747 629 l 653 768 l 199 768 m 240 207 l 240 213 l 364 339 l 593 339 l 593 140 l 276 140 l 240 207 m 367 1161 l 276 1069 l 276 938 l 367 847 l 499 847 l 593 936 l 593 1069 l 499 1161 l 367 1161 m 407 1071 l 461 1071 l 501 1031 l 501 975 l 461 938 l 407 938 l 368 975 l 368 1031 l 407 1071 z "},"ã":{"ha":833,"x_min":86,"x_max":747,"o":"m 199 768 l 199 631 l 596 631 l 596 481 l 307 481 l 86 250 l 86 182 l 208 0 l 507 0 l 596 54 l 596 0 l 747 0 l 747 629 l 653 768 l 199 768 m 240 207 l 240 213 l 364 339 l 593 339 l 593 140 l 276 140 l 240 207 m 671 1042 l 556 972 l 300 1040 l 139 944 l 199 844 l 318 919 l 569 847 l 731 943 l 671 1042 z "},"æ":{"ha":833,"x_min":-4,"x_max":838,"o":"m 107 775 l 107 638 l 349 638 l 349 474 l 214 474 l -4 247 l -4 179 l 117 0 l 371 0 l 408 78 l 460 0 l 711 0 l 822 118 l 744 233 l 653 138 l 539 138 l 493 204 l 493 335 l 594 335 l 838 589 l 713 775 l 463 775 l 424 735 l 396 775 l 107 775 m 493 604 l 525 638 l 639 638 l 661 604 l 536 474 l 493 474 l 493 604 m 144 204 l 144 210 l 272 335 l 349 335 l 349 190 l 315 138 l 188 138 l 144 204 z "},"b":{"ha":833,"x_min":90,"x_max":744,"o":"m 90 1057 l 90 0 l 240 0 l 240 53 l 329 0 l 621 0 l 744 129 l 744 575 l 622 757 l 326 757 l 240 704 l 240 1057 l 90 1057 m 240 585 l 274 619 l 549 619 l 594 551 l 594 172 l 564 139 l 240 139 l 240 585 z "},"c":{"ha":833,"x_min":96,"x_max":733,"o":"m 215 758 l 624 758 l 733 594 l 638 496 l 554 617 l 281 617 l 246 581 l 246 199 l 292 129 l 568 129 l 658 221 l 731 113 l 622 0 l 215 0 l 96 176 l 96 635 l 215 758 z "},"ć":{"ha":833,"x_min":96,"x_max":733,"o":"m 215 758 l 624 758 l 733 594 l 638 496 l 554 617 l 281 617 l 246 581 l 246 199 l 292 129 l 568 129 l 658 221 l 731 113 l 622 0 l 215 0 l 96 176 l 96 635 l 215 758 m 289 867 l 593 1013 l 510 1131 l 235 951 l 289 867 z "},"č":{"ha":833,"x_min":96,"x_max":733,"o":"m 215 758 l 624 758 l 733 594 l 638 496 l 554 617 l 281 617 l 246 581 l 246 199 l 292 129 l 568 129 l 658 221 l 731 113 l 622 0 l 215 0 l 96 176 l 96 635 l 215 758 m 454 868 l 661 1026 l 589 1107 l 417 999 l 246 1107 l 172 1026 l 379 868 l 454 868 z "},"ç":{"ha":833,"x_min":96,"x_max":733,"o":"m 215 758 l 624 758 l 733 594 l 638 496 l 554 617 l 281 617 l 246 581 l 246 199 l 292 129 l 568 129 l 658 221 l 731 113 l 622 0 l 215 0 l 96 176 l 96 635 l 215 758 m 329 -172 l 468 -172 l 329 10 l 479 10 l 588 -117 l 588 -187 l 476 -281 l 329 -281 l 329 -172 z "},"ċ":{"ha":833,"x_min":96,"x_max":733,"o":"m 215 758 l 624 758 l 733 594 l 638 496 l 554 617 l 281 617 l 246 581 l 246 199 l 292 129 l 568 129 l 658 221 l 731 113 l 622 0 l 215 0 l 96 176 l 96 635 l 215 758 m 329 871 l 329 1046 l 504 1046 l 504 871 l 329 871 z "},"d":{"ha":833,"x_min":96,"x_max":749,"o":"m 599 1058 l 749 1058 l 749 0 l 599 0 l 599 53 l 513 0 l 219 0 l 96 181 l 96 628 l 219 757 l 511 757 l 599 704 l 599 1058 m 246 206 l 290 139 l 569 139 l 599 169 l 599 551 l 554 619 l 279 619 l 246 585 l 246 206 z "},"ð":{"ha":833,"x_min":90,"x_max":743,"o":"m 213 1018 l 169 892 l 308 846 l 236 776 l 339 675 l 435 771 l 549 657 l 572 565 l 421 644 l 189 554 l 90 290 l 188 28 l 424 -74 l 657 28 l 743 290 l 743 435 l 668 718 l 525 867 l 608 951 l 506 1053 l 407 951 l 213 1018 m 294 129 l 231 290 l 301 465 l 414 510 l 599 413 l 606 314 l 544 129 l 424 72 l 294 129 z "},"ď":{"ha":833,"x_min":96,"x_max":1039,"o":"m 599 1058 l 749 1058 l 749 0 l 599 0 l 599 53 l 513 0 l 219 0 l 96 181 l 96 628 l 219 757 l 511 757 l 599 704 l 599 1058 m 246 206 l 290 139 l 569 139 l 599 169 l 599 551 l 554 619 l 279 619 l 246 585 l 246 206 m 860 1125 l 1039 1101 l 931 779 l 808 801 l 860 1125 z "},"đ":{"ha":833,"x_min":96,"x_max":836,"o":"m 599 1058 l 749 1058 l 749 0 l 599 0 l 599 53 l 513 0 l 219 0 l 96 181 l 96 628 l 219 757 l 511 757 l 599 704 l 599 1058 m 246 206 l 290 139 l 569 139 l 599 169 l 599 551 l 554 619 l 279 619 l 246 585 l 246 206 m 836 826 l 475 826 l 475 963 l 836 963 l 836 826 z "},"e":{"ha":833,"x_min":96,"x_max":740,"o":"m 215 758 l 96 635 l 96 176 l 214 0 l 617 0 l 725 113 l 639 219 l 563 140 l 286 140 l 239 211 l 239 329 l 500 329 l 740 576 l 618 758 l 215 758 m 239 581 l 275 617 l 533 617 l 561 578 l 446 457 l 239 457 l 239 581 z "},"é":{"ha":833,"x_min":96,"x_max":740,"o":"m 215 758 l 96 635 l 96 176 l 214 0 l 617 0 l 725 113 l 639 219 l 563 140 l 286 140 l 239 211 l 239 329 l 500 329 l 740 576 l 618 758 l 215 758 m 239 581 l 275 617 l 533 617 l 561 578 l 446 457 l 239 457 l 239 581 m 286 850 l 590 996 l 507 1114 l 232 935 l 286 850 z "},"ě":{"ha":833,"x_min":96,"x_max":740,"o":"m 215 758 l 96 635 l 96 176 l 214 0 l 617 0 l 725 113 l 639 219 l 563 140 l 286 140 l 239 211 l 239 329 l 500 329 l 740 576 l 618 758 l 215 758 m 239 581 l 275 617 l 533 617 l 561 578 l 446 457 l 239 457 l 239 581 m 451 851 l 658 1010 l 586 1090 l 414 982 l 243 1090 l 169 1010 l 376 851 l 451 851 z "},"ê":{"ha":833,"x_min":96,"x_max":740,"o":"m 215 758 l 96 635 l 96 176 l 214 0 l 617 0 l 725 113 l 639 219 l 563 140 l 286 140 l 239 211 l 239 329 l 500 329 l 740 576 l 618 758 l 215 758 m 239 581 l 275 617 l 533 617 l 561 578 l 446 457 l 239 457 l 239 581 m 451 1086 l 376 1086 l 169 929 l 243 847 l 414 956 l 586 847 l 658 929 l 451 1086 z "},"ë":{"ha":833,"x_min":96,"x_max":740,"o":"m 215 758 l 96 635 l 96 176 l 214 0 l 617 0 l 725 113 l 639 219 l 563 140 l 286 140 l 239 211 l 239 329 l 500 329 l 740 576 l 618 758 l 215 758 m 239 581 l 275 617 l 533 617 l 561 578 l 446 457 l 239 457 l 239 581 m 192 851 l 192 1004 l 344 1004 l 344 851 l 192 851 m 483 851 l 483 1004 l 636 1004 l 636 851 l 483 851 z "},"ė":{"ha":833,"x_min":96,"x_max":740,"o":"m 215 758 l 96 635 l 96 176 l 214 0 l 617 0 l 725 113 l 639 219 l 563 140 l 286 140 l 239 211 l 239 329 l 500 329 l 740 576 l 618 758 l 215 758 m 239 581 l 275 617 l 533 617 l 561 578 l 446 457 l 239 457 l 239 581 m 326 853 l 326 1028 l 501 1028 l 501 853 l 326 853 z "},"è":{"ha":833,"x_min":96,"x_max":740,"o":"m 215 758 l 96 635 l 96 176 l 214 0 l 617 0 l 725 113 l 639 219 l 563 140 l 286 140 l 239 211 l 239 329 l 500 329 l 740 576 l 618 758 l 215 758 m 239 581 l 275 617 l 533 617 l 561 578 l 446 457 l 239 457 l 239 581 m 542 844 l 596 929 l 321 1108 l 238 990 l 542 844 z "},"ē":{"ha":833,"x_min":96,"x_max":740,"o":"m 215 758 l 96 635 l 96 176 l 214 0 l 617 0 l 725 113 l 639 219 l 563 140 l 286 140 l 239 211 l 239 329 l 500 329 l 740 576 l 618 758 l 215 758 m 239 581 l 275 617 l 533 617 l 561 578 l 446 457 l 239 457 l 239 581 m 614 853 l 214 853 l 214 990 l 614 990 l 614 853 z "},"ę":{"ha":833,"x_min":96,"x_max":740,"o":"m 215 758 l 96 635 l 96 176 l 214 0 l 617 0 l 725 113 l 639 219 l 563 140 l 286 140 l 239 211 l 239 329 l 500 329 l 740 576 l 618 758 l 215 758 m 239 581 l 275 617 l 533 617 l 561 578 l 446 457 l 239 457 l 239 581 m 488 -168 l 349 -168 l 488 14 l 349 28 l 229 -112 l 229 -183 l 340 -276 l 488 -276 l 488 -168 z "},"f":{"ha":833,"x_min":92,"x_max":743,"o":"m 340 972 l 203 831 l 203 588 l 92 588 l 92 451 l 203 451 l 203 0 l 351 0 l 351 451 l 592 451 l 592 588 l 351 588 l 351 783 l 401 835 l 592 835 l 646 756 l 743 856 l 663 972 l 340 972 z "},"g":{"ha":833,"x_min":88,"x_max":744,"o":"m 332 50 l 576 50 l 590 31 l 590 -56 l 488 -157 l 310 -157 l 268 -94 l 268 -8 l 332 50 m 258 572 l 308 626 l 546 626 l 590 563 l 590 472 l 493 411 l 258 411 l 258 572 m 504 272 l 740 417 l 740 765 l 590 765 l 590 713 l 504 765 l 251 765 l 110 618 l 110 349 l 160 318 l 88 249 l 188 99 l 114 25 l 114 -128 l 239 -296 l 546 -296 l 744 -107 l 744 46 l 651 190 l 289 190 l 265 231 l 304 272 l 504 272 z "},"ğ":{"ha":833,"x_min":88,"x_max":744,"o":"m 332 50 l 576 50 l 590 31 l 590 -56 l 488 -157 l 310 -157 l 268 -94 l 268 -8 l 332 50 m 258 572 l 308 626 l 546 626 l 590 563 l 590 472 l 493 411 l 258 411 l 258 572 m 504 272 l 740 417 l 740 765 l 590 765 l 590 713 l 504 765 l 251 765 l 110 618 l 110 349 l 160 318 l 88 249 l 188 99 l 114 25 l 114 -128 l 239 -296 l 546 -296 l 744 -107 l 744 46 l 651 190 l 289 190 l 265 231 l 304 272 l 504 272 m 128 992 l 128 1090 l 296 1090 l 296 961 l 482 961 l 482 1090 l 650 1090 l 650 992 l 500 842 l 279 842 l 128 992 z "},"ģ":{"ha":833,"x_min":88,"x_max":744,"o":"m 332 50 l 576 50 l 590 31 l 590 -56 l 488 -157 l 310 -157 l 268 -94 l 268 -8 l 332 50 m 258 572 l 308 626 l 546 626 l 590 563 l 590 472 l 493 411 l 258 411 l 258 572 m 504 272 l 740 417 l 740 765 l 590 765 l 590 713 l 504 765 l 251 765 l 110 618 l 110 349 l 160 318 l 88 249 l 188 99 l 114 25 l 114 -128 l 239 -296 l 546 -296 l 744 -107 l 744 46 l 651 190 l 289 190 l 265 231 l 304 272 l 504 272 m 478 874 l 478 1044 l 393 1044 l 393 1122 l 465 1196 l 388 1274 l 286 1171 l 286 874 l 478 874 z "},"ġ":{"ha":833,"x_min":88,"x_max":744,"o":"m 332 50 l 576 50 l 590 31 l 590 -56 l 488 -157 l 310 -157 l 268 -94 l 268 -8 l 332 50 m 258 572 l 308 626 l 546 626 l 590 563 l 590 472 l 493 411 l 258 411 l 258 572 m 504 272 l 740 417 l 740 765 l 590 765 l 590 713 l 504 765 l 251 765 l 110 618 l 110 349 l 160 318 l 88 249 l 188 99 l 114 25 l 114 -128 l 239 -296 l 546 -296 l 744 -107 l 744 46 l 651 190 l 289 190 l 265 231 l 304 272 l 504 272 m 301 843 l 301 1018 l 476 1018 l 476 843 l 301 843 z "},"h":{"ha":833,"x_min":92,"x_max":743,"o":"m 92 1058 l 240 1058 l 240 703 l 328 756 l 619 756 l 743 581 l 743 0 l 594 0 l 594 554 l 550 619 l 274 619 l 240 588 l 240 0 l 92 0 l 92 1058 z "},"ħ":{"ha":833,"x_min":0,"x_max":743,"o":"m 92 1058 l 240 1058 l 240 703 l 328 756 l 619 756 l 743 581 l 743 0 l 594 0 l 594 554 l 550 619 l 274 619 l 240 588 l 240 0 l 92 0 l 92 1058 m 361 844 l 0 844 l 0 981 l 361 981 l 361 844 z "},"i":{"ha":833,"x_min":92,"x_max":742,"o":"m 149 782 l 149 647 l 299 647 l 344 581 l 344 135 l 92 135 l 92 0 l 742 0 l 742 135 l 489 135 l 489 604 l 369 782 l 149 782 m 329 946 l 329 1121 l 504 1121 l 504 946 l 329 946 z "},"ı":{"ha":833,"x_min":92,"x_max":742,"o":"m 149 782 l 149 647 l 299 647 l 344 581 l 344 135 l 92 135 l 92 0 l 742 0 l 742 135 l 489 135 l 489 604 l 369 782 l 149 782 z "},"í":{"ha":833,"x_min":92,"x_max":742,"o":"m 149 782 l 149 647 l 299 647 l 344 581 l 344 135 l 92 135 l 92 0 l 742 0 l 742 135 l 489 135 l 489 604 l 369 782 l 149 782 m 289 942 l 593 1088 l 510 1206 l 235 1026 l 289 942 z "},"î":{"ha":833,"x_min":92,"x_max":742,"o":"m 149 782 l 149 647 l 299 647 l 344 581 l 344 135 l 92 135 l 92 0 l 742 0 l 742 135 l 489 135 l 489 604 l 369 782 l 149 782 m 454 1179 l 379 1179 l 172 1022 l 246 940 l 417 1049 l 589 940 l 661 1022 l 454 1179 z "},"ï":{"ha":833,"x_min":92,"x_max":742,"o":"m 149 782 l 149 647 l 299 647 l 344 581 l 344 135 l 92 135 l 92 0 l 742 0 l 742 135 l 489 135 l 489 604 l 369 782 l 149 782 m 194 944 l 194 1097 l 347 1097 l 347 944 l 194 944 m 486 944 l 486 1097 l 639 1097 l 639 944 l 486 944 z "},"ì":{"ha":833,"x_min":92,"x_max":742,"o":"m 149 782 l 149 647 l 299 647 l 344 581 l 344 135 l 92 135 l 92 0 l 742 0 l 742 135 l 489 135 l 489 604 l 369 782 l 149 782 m 544 936 l 599 1021 l 324 1200 l 240 1082 l 544 936 z "},"ĳ":{"ha":833,"x_min":90,"x_max":743,"o":"m 90 799 l 267 799 l 267 972 l 90 972 l 90 799 m 567 799 l 743 799 l 743 972 l 567 972 l 567 799 m 579 686 l 579 64 l 253 131 l 253 686 l 104 686 l 104 38 l 574 -82 l 574 -97 l 435 -233 l 235 -233 l 235 -371 l 492 -371 l 728 -125 l 728 686 l 579 686 z "},"ī":{"ha":833,"x_min":92,"x_max":742,"o":"m 149 782 l 149 647 l 299 647 l 344 581 l 344 135 l 92 135 l 92 0 l 742 0 l 742 135 l 489 135 l 489 604 l 369 782 l 149 782 m 617 944 l 217 944 l 217 1082 l 617 1082 l 617 944 z "},"į":{"ha":833,"x_min":92,"x_max":742,"o":"m 149 782 l 149 647 l 299 647 l 344 581 l 344 135 l 92 135 l 92 0 l 742 0 l 742 135 l 489 135 l 489 604 l 369 782 l 149 782 m 329 946 l 329 1121 l 504 1121 l 504 946 l 329 946 m 490 -168 l 351 -168 l 490 14 l 351 28 l 232 -112 l 232 -183 l 343 -276 l 490 -276 l 490 -168 z "},"j":{"ha":833,"x_min":213,"x_max":647,"o":"m 315 774 l 647 774 l 647 92 l 413 -153 l 213 -153 l 213 -18 l 356 -18 l 501 135 l 501 638 l 315 638 l 315 774 m 403 954 l 403 1129 l 578 1129 l 578 954 l 403 954 z "},"ȷ":{"ha":833,"x_min":213,"x_max":647,"o":"m 315 774 l 647 774 l 647 92 l 413 -153 l 213 -153 l 213 -18 l 356 -18 l 501 135 l 501 638 l 315 638 l 315 774 z "},"k":{"ha":833,"x_min":92,"x_max":743,"o":"m 92 1039 l 92 0 l 240 0 l 240 329 l 368 461 l 594 131 l 594 0 l 743 0 l 743 154 l 467 564 l 700 800 l 507 800 l 240 524 l 240 1039 l 92 1039 z "},"ķ":{"ha":833,"x_min":92,"x_max":743,"o":"m 92 1039 l 92 0 l 240 0 l 240 329 l 368 461 l 594 131 l 594 0 l 743 0 l 743 154 l 467 564 l 700 800 l 507 800 l 240 524 l 240 1039 l 92 1039 m 347 -432 l 547 -162 l 419 -94 l 257 -378 l 347 -432 z "},"l":{"ha":833,"x_min":108,"x_max":724,"o":"m 108 1039 l 108 901 l 293 901 l 293 178 l 414 0 l 724 0 l 724 138 l 486 138 l 442 203 l 442 965 l 315 1039 l 108 1039 z "},"ĺ":{"ha":833,"x_min":108,"x_max":724,"o":"m 108 1039 l 108 901 l 293 901 l 293 178 l 414 0 l 724 0 l 724 138 l 486 138 l 442 203 l 442 965 l 315 1039 l 108 1039 m 246 1140 l 550 1286 l 467 1404 l 192 1225 l 246 1140 z "},"ľ":{"ha":833,"x_min":108,"x_max":804,"o":"m 108 1039 l 108 901 l 293 901 l 293 178 l 414 0 l 724 0 l 724 138 l 486 138 l 442 203 l 442 965 l 315 1039 l 108 1039 m 625 1019 l 804 996 l 696 674 l 574 696 l 625 1019 z "},"ļ":{"ha":833,"x_min":108,"x_max":724,"o":"m 108 1039 l 108 901 l 293 901 l 293 178 l 414 0 l 724 0 l 724 138 l 486 138 l 442 203 l 442 965 l 315 1039 l 108 1039 m 433 -464 l 633 -194 l 506 -126 l 343 -410 l 433 -464 z "},"ł":{"ha":833,"x_min":60,"x_max":772,"o":"m 108 1039 l 108 901 l 293 901 l 293 178 l 414 0 l 724 0 l 724 138 l 486 138 l 442 203 l 442 965 l 315 1039 l 108 1039 m 660 899 l 60 32 l 171 -44 l 772 822 l 660 899 z "},"m":{"ha":833,"x_min":64,"x_max":771,"o":"m 64 756 l 64 0 l 213 0 l 213 585 l 243 619 l 300 619 l 344 553 l 344 385 l 493 385 l 493 585 l 524 619 l 578 619 l 622 553 l 622 0 l 771 0 l 771 578 l 650 756 l 581 756 l 433 667 l 372 756 l 300 756 l 213 703 l 213 756 l 64 756 z "},"n":{"ha":833,"x_min":92,"x_max":743,"o":"m 92 756 l 92 0 l 240 0 l 240 585 l 271 619 l 550 619 l 594 553 l 594 0 l 743 0 l 743 578 l 622 756 l 329 756 l 240 703 l 240 756 l 92 756 z "},"ń":{"ha":833,"x_min":92,"x_max":743,"o":"m 92 756 l 92 0 l 240 0 l 240 585 l 271 619 l 550 619 l 594 553 l 594 0 l 743 0 l 743 578 l 622 756 l 329 756 l 240 703 l 240 756 l 92 756 m 349 849 l 653 994 l 569 1113 l 294 933 l 349 849 z "},"ň":{"ha":833,"x_min":92,"x_max":743,"o":"m 92 756 l 92 0 l 240 0 l 240 585 l 271 619 l 550 619 l 594 553 l 594 0 l 743 0 l 743 578 l 622 756 l 329 756 l 240 703 l 240 756 l 92 756 m 514 850 l 721 1008 l 649 1089 l 476 981 l 306 1089 l 232 1008 l 439 850 l 514 850 z "},"ņ":{"ha":833,"x_min":92,"x_max":743,"o":"m 92 756 l 92 0 l 240 0 l 240 585 l 271 619 l 550 619 l 594 553 l 594 0 l 743 0 l 743 578 l 622 756 l 329 756 l 240 703 l 240 756 l 92 756 m 347 -432 l 547 -162 l 419 -94 l 257 -378 l 347 -432 z "},"ñ":{"ha":833,"x_min":92,"x_max":772,"o":"m 92 756 l 92 0 l 240 0 l 240 585 l 271 619 l 550 619 l 594 553 l 594 0 l 743 0 l 743 578 l 622 756 l 329 756 l 240 703 l 240 756 l 92 756 m 713 1046 l 597 976 l 342 1044 l 181 949 l 240 849 l 360 924 l 611 851 l 772 947 l 713 1046 z "},"o":{"ha":833,"x_min":93,"x_max":744,"o":"m 215 756 l 625 756 l 744 576 l 744 126 l 622 0 l 214 0 l 93 179 l 93 629 l 215 756 m 240 204 l 286 138 l 564 138 l 594 171 l 594 553 l 550 619 l 272 619 l 240 585 l 240 204 z "},"ó":{"ha":833,"x_min":93,"x_max":744,"o":"m 215 756 l 625 756 l 744 576 l 744 126 l 622 0 l 214 0 l 93 179 l 93 629 l 215 756 m 240 204 l 286 138 l 564 138 l 594 171 l 594 553 l 550 619 l 272 619 l 240 585 l 240 204 m 292 850 l 596 996 l 513 1114 l 238 935 l 292 850 z "},"ô":{"ha":833,"x_min":93,"x_max":744,"o":"m 215 756 l 625 756 l 744 576 l 744 126 l 622 0 l 214 0 l 93 179 l 93 629 l 215 756 m 240 204 l 286 138 l 564 138 l 594 171 l 594 553 l 550 619 l 272 619 l 240 585 l 240 204 m 457 1086 l 382 1086 l 175 929 l 249 847 l 419 956 l 592 847 l 664 929 l 457 1086 z "},"ö":{"ha":833,"x_min":93,"x_max":744,"o":"m 215 756 l 625 756 l 744 576 l 744 126 l 622 0 l 214 0 l 93 179 l 93 629 l 215 756 m 240 204 l 286 138 l 564 138 l 594 171 l 594 553 l 550 619 l 272 619 l 240 585 l 240 204 m 197 851 l 197 1004 l 350 1004 l 350 851 l 197 851 m 489 851 l 489 1004 l 642 1004 l 642 851 l 489 851 z "},"ò":{"ha":833,"x_min":93,"x_max":744,"o":"m 215 756 l 625 756 l 744 576 l 744 126 l 622 0 l 214 0 l 93 179 l 93 629 l 215 756 m 240 204 l 286 138 l 564 138 l 594 171 l 594 553 l 550 619 l 272 619 l 240 585 l 240 204 m 547 843 l 601 928 l 326 1107 l 243 989 l 547 843 z "},"ő":{"ha":833,"x_min":93,"x_max":772,"o":"m 215 756 l 625 756 l 744 576 l 744 126 l 622 0 l 214 0 l 93 179 l 93 629 l 215 756 m 240 204 l 286 138 l 564 138 l 594 171 l 594 553 l 550 619 l 272 619 l 240 585 l 240 204 m 313 847 l 517 1115 l 388 1185 l 224 901 l 313 847 m 539 847 l 772 1089 l 653 1174 l 458 910 l 539 847 z "},"ø":{"ha":833,"x_min":93,"x_max":744,"o":"m 215 756 l 625 756 l 744 576 l 744 126 l 622 0 l 214 0 l 93 179 l 93 629 l 215 756 m 240 204 l 286 138 l 564 138 l 594 171 l 594 553 l 550 619 l 272 619 l 240 585 l 240 204 m 578 1103 l 707 1060 l 293 -157 l 165 -114 l 578 1103 z "},"õ":{"ha":833,"x_min":93,"x_max":744,"o":"m 215 756 l 625 756 l 744 576 l 744 126 l 622 0 l 214 0 l 93 179 l 93 629 l 215 756 m 240 204 l 286 138 l 564 138 l 594 171 l 594 553 l 550 619 l 272 619 l 240 585 l 240 204 m 656 1046 l 540 976 l 285 1044 l 124 949 l 183 849 l 303 924 l 554 851 l 715 947 l 656 1046 z "},"œ":{"ha":833,"x_min":-3,"x_max":836,"o":"m 119 757 l -3 631 l -3 181 l 118 0 l 369 0 l 426 58 l 464 0 l 708 0 l 821 118 l 742 233 l 650 138 l 538 138 l 492 204 l 492 318 l 592 318 l 836 571 l 710 757 l 467 757 l 410 699 l 372 757 l 119 757 m 146 204 l 146 585 l 178 619 l 299 619 l 344 553 l 344 171 l 313 138 l 192 138 l 146 204 m 492 586 l 525 619 l 636 619 l 660 586 l 535 456 l 492 456 l 492 586 z "},"p":{"ha":833,"x_min":92,"x_max":742,"o":"m 326 756 l 240 703 l 240 756 l 92 756 l 92 -300 l 240 -300 l 240 51 l 329 0 l 619 0 l 742 126 l 742 576 l 624 756 l 326 756 m 240 204 l 240 586 l 272 618 l 549 618 l 593 550 l 593 169 l 563 138 l 286 138 l 240 204 z "},"þ":{"ha":833,"x_min":92,"x_max":742,"o":"m 92 1060 l 92 -283 l 239 -283 l 239 53 l 331 0 l 618 0 l 742 129 l 742 576 l 621 757 l 326 757 l 239 704 l 239 1060 l 92 1060 m 239 586 l 272 619 l 549 619 l 594 551 l 594 172 l 563 139 l 239 139 l 239 586 z "},"q":{"ha":833,"x_min":92,"x_max":742,"o":"m 214 756 l 92 629 l 92 179 l 211 0 l 504 0 l 593 51 l 593 -300 l 742 -300 l 742 754 l 593 754 l 593 703 l 503 756 l 214 756 m 240 206 l 240 586 l 272 618 l 546 618 l 593 551 l 593 169 l 560 138 l 286 138 l 240 206 z "},"r":{"ha":833,"x_min":81,"x_max":753,"o":"m 81 756 l 81 619 l 176 619 l 221 553 l 221 138 l 81 138 l 81 0 l 565 0 l 565 138 l 369 138 l 369 565 l 419 619 l 593 619 l 639 549 l 753 626 l 665 756 l 360 756 l 289 682 l 165 756 l 81 756 z "},"ŕ":{"ha":833,"x_min":81,"x_max":753,"o":"m 81 756 l 81 619 l 176 619 l 221 553 l 221 138 l 81 138 l 81 0 l 565 0 l 565 138 l 369 138 l 369 565 l 419 619 l 593 619 l 639 549 l 753 626 l 665 756 l 360 756 l 289 682 l 165 756 l 81 756 m 385 849 l 689 994 l 606 1113 l 331 933 l 385 849 z "},"ř":{"ha":833,"x_min":81,"x_max":757,"o":"m 81 756 l 81 619 l 176 619 l 221 553 l 221 138 l 81 138 l 81 0 l 565 0 l 565 138 l 369 138 l 369 565 l 419 619 l 593 619 l 639 549 l 753 626 l 665 756 l 360 756 l 289 682 l 165 756 l 81 756 m 550 850 l 757 1008 l 685 1089 l 513 981 l 342 1089 l 268 1008 l 475 850 l 550 850 z "},"s":{"ha":833,"x_min":103,"x_max":731,"o":"m 225 763 l 624 763 l 711 635 l 615 536 l 553 628 l 288 628 l 257 601 l 257 524 l 300 460 l 626 460 l 731 306 l 731 117 l 625 0 l 172 0 l 103 107 l 199 204 l 243 138 l 563 138 l 581 160 l 581 278 l 550 322 l 224 322 l 108 496 l 108 649 l 225 763 z "},"ś":{"ha":833,"x_min":103,"x_max":731,"o":"m 225 763 l 624 763 l 711 635 l 615 536 l 553 628 l 288 628 l 257 601 l 257 524 l 300 460 l 626 460 l 731 306 l 731 117 l 625 0 l 172 0 l 103 107 l 199 204 l 243 138 l 563 138 l 581 160 l 581 278 l 550 322 l 224 322 l 108 496 l 108 649 l 225 763 m 293 849 l 597 994 l 514 1113 l 239 933 l 293 849 z "},"š":{"ha":833,"x_min":103,"x_max":731,"o":"m 225 763 l 624 763 l 711 635 l 615 536 l 553 628 l 288 628 l 257 601 l 257 524 l 300 460 l 626 460 l 731 306 l 731 117 l 625 0 l 172 0 l 103 107 l 199 204 l 243 138 l 563 138 l 581 160 l 581 278 l 550 322 l 224 322 l 108 496 l 108 649 l 225 763 m 458 850 l 665 1008 l 593 1089 l 421 981 l 250 1089 l 176 1008 l 383 850 l 458 850 z "},"ş":{"ha":833,"x_min":103,"x_max":731,"o":"m 225 763 l 624 763 l 711 635 l 615 536 l 553 628 l 288 628 l 257 601 l 257 524 l 300 460 l 626 460 l 731 306 l 731 117 l 625 0 l 172 0 l 103 107 l 199 204 l 243 138 l 563 138 l 581 160 l 581 278 l 550 322 l 224 322 l 108 496 l 108 649 l 225 763 m 310 -178 l 449 -178 l 310 4 l 460 4 l 568 -122 l 568 -193 l 457 -286 l 310 -286 l 310 -178 z "},"ș":{"ha":833,"x_min":103,"x_max":731,"o":"m 225 763 l 624 763 l 711 635 l 615 536 l 553 628 l 288 628 l 257 601 l 257 524 l 300 460 l 626 460 l 731 306 l 731 117 l 625 0 l 172 0 l 103 107 l 199 204 l 243 138 l 563 138 l 581 160 l 581 278 l 550 322 l 224 322 l 108 496 l 108 649 l 225 763 m 347 -432 l 547 -162 l 419 -94 l 257 -378 l 347 -432 z "},"ß":{"ha":833,"x_min":90,"x_max":742,"o":"m 331 1024 l 90 768 l 90 0 l 239 0 l 239 722 l 363 856 l 493 775 l 300 607 l 300 468 l 510 468 l 593 344 l 593 178 l 557 138 l 396 138 l 396 0 l 614 0 l 742 133 l 742 368 l 582 607 l 492 607 l 624 706 l 624 849 l 331 1024 z "},"t":{"ha":833,"x_min":117,"x_max":717,"o":"m 228 1039 l 376 1039 l 376 757 l 601 757 l 601 619 l 376 619 l 376 204 l 421 139 l 544 139 l 639 232 l 717 118 l 607 0 l 347 0 l 228 176 l 228 619 l 117 619 l 117 757 l 228 757 l 228 1039 z "},"ť":{"ha":833,"x_min":117,"x_max":754,"o":"m 228 1039 l 376 1039 l 376 757 l 601 757 l 601 619 l 376 619 l 376 204 l 421 139 l 544 139 l 639 232 l 717 118 l 607 0 l 347 0 l 228 176 l 228 619 l 117 619 l 117 757 l 228 757 l 228 1039 m 575 1233 l 754 1210 l 646 888 l 524 910 l 575 1233 z "},"ț":{"ha":833,"x_min":117,"x_max":717,"o":"m 228 1039 l 376 1039 l 376 757 l 601 757 l 601 619 l 376 619 l 376 204 l 421 139 l 544 139 l 639 232 l 717 118 l 607 0 l 347 0 l 228 176 l 228 619 l 117 619 l 117 757 l 228 757 l 228 1039 m 408 -432 l 608 -162 l 481 -94 l 318 -378 l 408 -432 z "},"u":{"ha":833,"x_min":92,"x_max":742,"o":"m 593 756 l 593 171 l 563 139 l 285 139 l 240 204 l 240 756 l 92 756 l 92 179 l 213 0 l 506 0 l 596 53 l 596 0 l 742 0 l 742 756 l 593 756 z "},"ú":{"ha":833,"x_min":92,"x_max":742,"o":"m 593 756 l 593 171 l 563 139 l 285 139 l 240 204 l 240 756 l 92 756 l 92 179 l 213 0 l 506 0 l 596 53 l 596 0 l 742 0 l 742 756 l 593 756 m 289 850 l 593 996 l 510 1114 l 235 935 l 289 850 z "},"û":{"ha":833,"x_min":92,"x_max":742,"o":"m 593 756 l 593 171 l 563 139 l 285 139 l 240 204 l 240 756 l 92 756 l 92 179 l 213 0 l 506 0 l 596 53 l 596 0 l 742 0 l 742 756 l 593 756 m 454 1086 l 379 1086 l 172 929 l 246 847 l 417 956 l 589 847 l 661 929 l 454 1086 z "},"ü":{"ha":833,"x_min":92,"x_max":742,"o":"m 593 756 l 593 171 l 563 139 l 285 139 l 240 204 l 240 756 l 92 756 l 92 179 l 213 0 l 506 0 l 596 53 l 596 0 l 742 0 l 742 756 l 593 756 m 194 851 l 194 1004 l 347 1004 l 347 851 l 194 851 m 486 851 l 486 1004 l 639 1004 l 639 851 l 486 851 z "},"ù":{"ha":833,"x_min":92,"x_max":742,"o":"m 593 756 l 593 171 l 563 139 l 285 139 l 240 204 l 240 756 l 92 756 l 92 179 l 213 0 l 506 0 l 596 53 l 596 0 l 742 0 l 742 756 l 593 756 m 544 843 l 599 928 l 324 1107 l 240 989 l 544 843 z "},"ű":{"ha":833,"x_min":92,"x_max":769,"o":"m 593 756 l 593 171 l 563 139 l 285 139 l 240 204 l 240 756 l 92 756 l 92 179 l 213 0 l 506 0 l 596 53 l 596 0 l 742 0 l 742 756 l 593 756 m 310 847 l 514 1115 l 385 1185 l 221 901 l 310 847 m 536 847 l 769 1089 l 650 1174 l 456 910 l 536 847 z "},"ū":{"ha":833,"x_min":92,"x_max":742,"o":"m 593 756 l 593 171 l 563 139 l 285 139 l 240 204 l 240 756 l 92 756 l 92 179 l 213 0 l 506 0 l 596 53 l 596 0 l 742 0 l 742 756 l 593 756 m 617 853 l 217 853 l 217 990 l 617 990 l 617 853 z "},"ų":{"ha":833,"x_min":92,"x_max":742,"o":"m 593 756 l 593 171 l 563 139 l 285 139 l 240 204 l 240 756 l 92 756 l 92 179 l 213 0 l 506 0 l 596 53 l 596 0 l 742 0 l 742 756 l 593 756 m 742 -182 l 603 -182 l 742 0 l 603 14 l 483 -126 l 483 -197 l 594 -290 l 742 -290 l 742 -182 z "},"ů":{"ha":833,"x_min":92,"x_max":742,"o":"m 593 756 l 593 171 l 563 139 l 285 139 l 240 204 l 240 756 l 92 756 l 92 179 l 213 0 l 506 0 l 596 53 l 596 0 l 742 0 l 742 756 l 593 756 m 349 1167 l 258 1075 l 258 943 l 349 853 l 481 853 l 575 942 l 575 1075 l 481 1167 l 349 1167 m 389 1076 l 443 1076 l 483 1036 l 483 981 l 443 943 l 389 943 l 350 981 l 350 1036 l 389 1076 z "},"v":{"ha":833,"x_min":92,"x_max":743,"o":"m 594 757 l 594 368 l 382 147 l 240 358 l 240 757 l 92 757 l 92 332 l 315 0 l 429 0 l 743 325 l 743 757 l 594 757 z "},"w":{"ha":833,"x_min":26,"x_max":808,"o":"m 660 756 l 660 278 l 554 167 l 550 167 l 489 256 l 489 756 l 340 756 l 340 221 l 285 161 l 279 161 l 175 307 l 175 756 l 26 756 l 26 282 l 218 0 l 333 0 l 428 97 l 485 0 l 604 0 l 808 211 l 808 756 l 660 756 z "},"ẃ":{"ha":833,"x_min":26,"x_max":808,"o":"m 660 756 l 660 278 l 554 167 l 550 167 l 489 256 l 489 756 l 340 756 l 340 221 l 285 161 l 279 161 l 175 307 l 175 756 l 26 756 l 26 282 l 218 0 l 333 0 l 428 97 l 485 0 l 604 0 l 808 211 l 808 756 l 660 756 m 289 850 l 593 996 l 510 1114 l 235 935 l 289 850 z "},"ŵ":{"ha":833,"x_min":26,"x_max":808,"o":"m 660 756 l 660 278 l 554 167 l 550 167 l 489 256 l 489 756 l 340 756 l 340 221 l 285 161 l 279 161 l 175 307 l 175 756 l 26 756 l 26 282 l 218 0 l 333 0 l 428 97 l 485 0 l 604 0 l 808 211 l 808 756 l 660 756 m 454 1086 l 379 1086 l 172 929 l 246 847 l 417 956 l 589 847 l 661 929 l 454 1086 z "},"ẅ":{"ha":833,"x_min":26,"x_max":808,"o":"m 660 756 l 660 278 l 554 167 l 550 167 l 489 256 l 489 756 l 340 756 l 340 221 l 285 161 l 279 161 l 175 307 l 175 756 l 26 756 l 26 282 l 218 0 l 333 0 l 428 97 l 485 0 l 604 0 l 808 211 l 808 756 l 660 756 m 194 851 l 194 1004 l 347 1004 l 347 851 l 194 851 m 486 851 l 486 1004 l 639 1004 l 639 851 l 486 851 z "},"ẁ":{"ha":833,"x_min":26,"x_max":808,"o":"m 660 756 l 660 278 l 554 167 l 550 167 l 489 256 l 489 756 l 340 756 l 340 221 l 285 161 l 279 161 l 175 307 l 175 756 l 26 756 l 26 282 l 218 0 l 333 0 l 428 97 l 485 0 l 604 0 l 808 211 l 808 756 l 660 756 m 544 843 l 599 928 l 324 1107 l 240 989 l 544 843 z "},"x":{"ha":833,"x_min":90,"x_max":743,"o":"m 594 756 l 594 622 l 440 464 l 311 464 l 239 571 l 239 756 l 90 756 l 90 546 l 219 347 l 219 344 l 90 210 l 90 0 l 239 0 l 239 168 l 390 325 l 522 325 l 594 219 l 594 0 l 743 0 l 743 244 l 610 440 l 743 576 l 743 756 l 594 756 z "},"y":{"ha":833,"x_min":92,"x_max":742,"o":"m 593 757 l 593 138 l 313 138 l 240 243 l 240 757 l 92 757 l 92 218 l 239 0 l 593 0 l 593 -12 l 444 -162 l 92 -162 l 92 -301 l 506 -301 l 742 -56 l 742 757 l 593 757 z "},"ý":{"ha":833,"x_min":92,"x_max":742,"o":"m 593 757 l 593 138 l 313 138 l 240 243 l 240 757 l 92 757 l 92 218 l 239 0 l 593 0 l 593 -12 l 444 -162 l 92 -162 l 92 -301 l 506 -301 l 742 -56 l 742 757 l 593 757 m 289 838 l 593 983 l 510 1101 l 235 922 l 289 838 z "},"ŷ":{"ha":833,"x_min":92,"x_max":742,"o":"m 593 757 l 593 138 l 313 138 l 240 243 l 240 757 l 92 757 l 92 218 l 239 0 l 593 0 l 593 -12 l 444 -162 l 92 -162 l 92 -301 l 506 -301 l 742 -56 l 742 757 l 593 757 m 454 1074 l 379 1074 l 172 917 l 246 835 l 417 943 l 589 835 l 661 917 l 454 1074 z "},"ÿ":{"ha":833,"x_min":92,"x_max":742,"o":"m 593 757 l 593 138 l 313 138 l 240 243 l 240 757 l 92 757 l 92 218 l 239 0 l 593 0 l 593 -12 l 444 -162 l 92 -162 l 92 -301 l 506 -301 l 742 -56 l 742 757 l 593 757 m 194 839 l 194 992 l 347 992 l 347 839 l 194 839 m 486 839 l 486 992 l 639 992 l 639 839 l 486 839 z "},"ỳ":{"ha":833,"x_min":92,"x_max":742,"o":"m 593 757 l 593 138 l 313 138 l 240 243 l 240 757 l 92 757 l 92 218 l 239 0 l 593 0 l 593 -12 l 444 -162 l 92 -162 l 92 -301 l 506 -301 l 742 -56 l 742 757 l 593 757 m 544 831 l 599 915 l 324 1094 l 240 976 l 544 831 z "},"z":{"ha":833,"x_min":100,"x_max":733,"o":"m 100 756 l 100 619 l 565 619 l 565 610 l 100 126 l 100 0 l 733 0 l 733 138 l 275 138 l 733 614 l 733 756 l 100 756 z "},"ź":{"ha":833,"x_min":100,"x_max":733,"o":"m 100 756 l 100 619 l 565 619 l 565 610 l 100 126 l 100 0 l 733 0 l 733 138 l 275 138 l 733 614 l 733 756 l 100 756 m 289 838 l 593 983 l 510 1101 l 235 922 l 289 838 z "},"ž":{"ha":833,"x_min":100,"x_max":733,"o":"m 100 756 l 100 619 l 565 619 l 565 610 l 100 126 l 100 0 l 733 0 l 733 138 l 275 138 l 733 614 l 733 756 l 100 756 m 454 839 l 661 997 l 589 1078 l 417 969 l 246 1078 l 172 997 l 379 839 l 454 839 z "},"ż":{"ha":833,"x_min":100,"x_max":733,"o":"m 100 756 l 100 619 l 565 619 l 565 610 l 100 126 l 100 0 l 733 0 l 733 138 l 275 138 l 733 614 l 733 756 l 100 756 m 329 840 l 329 1015 l 504 1015 l 504 840 l 329 840 z "},"ª":{"ha":833,"x_min":86,"x_max":747,"o":"m 199 768 l 199 631 l 596 631 l 596 481 l 307 481 l 86 250 l 86 182 l 208 0 l 507 0 l 596 54 l 596 0 l 747 0 l 747 629 l 653 768 l 199 768 m 240 207 l 240 213 l 364 339 l 593 339 l 593 140 l 276 140 l 240 207 z "},"º":{"ha":833,"x_min":93,"x_max":744,"o":"m 215 756 l 625 756 l 744 576 l 744 126 l 622 0 l 214 0 l 93 179 l 93 629 l 215 756 m 240 204 l 286 138 l 564 138 l 594 171 l 594 553 l 550 619 l 272 619 l 240 585 l 240 204 z "},"Δ":{"ha":833,"x_min":54,"x_max":785,"o":"m 504 972 l 329 972 l 54 0 l 785 0 l 504 972 m 428 785 l 614 136 l 224 136 l 407 785 l 428 785 z "},"μ":{"ha":833,"x_min":74,"x_max":772,"o":"m 725 742 l 724 149 l 772 0 l 647 0 l 622 50 l 574 0 l 311 0 l 222 51 l 222 -300 l 74 -300 l 74 742 l 224 742 l 222 204 l 267 138 l 544 138 l 575 169 l 575 742 l 725 742 z "},"π":{"ha":833,"x_min":31,"x_max":803,"o":"m 803 761 l 31 761 l 31 622 l 147 622 l 147 0 l 283 0 l 283 622 l 551 622 l 551 211 l 644 0 l 786 0 l 689 213 l 689 622 l 803 622 l 803 761 z "},"⁄":{"ha":833,"x_min":28,"x_max":810,"o":"m 64 215 l 810 572 l 775 632 l 28 275 l 64 215 z "},"⅟":{"ha":833,"x_min":28,"x_max":810,"o":"m 64 215 l 810 572 l 775 632 l 28 275 l 64 215 m 217 1083 l 88 951 l 133 885 l 208 963 l 208 663 l 82 663 l 82 583 l 417 583 l 417 663 l 293 663 l 293 1083 l 217 1083 z "},"½":{"ha":833,"x_min":28,"x_max":810,"o":"m 64 215 l 810 572 l 775 632 l 28 275 l 64 215 m 217 1083 l 88 951 l 133 885 l 208 963 l 208 663 l 82 663 l 82 583 l 417 583 l 417 663 l 293 663 l 293 1083 l 217 1083 m 428 278 l 358 208 l 403 143 l 460 200 l 586 200 l 619 149 l 363 -115 l 363 -222 l 697 -222 l 697 -143 l 446 -143 l 446 -140 l 697 119 l 697 189 l 638 278 l 428 278 z "},"⅓":{"ha":833,"x_min":28,"x_max":810,"o":"m 64 215 l 810 572 l 775 632 l 28 275 l 64 215 m 217 1083 l 88 951 l 133 885 l 208 963 l 208 663 l 82 663 l 82 583 l 417 583 l 417 663 l 293 663 l 293 1083 l 217 1083 m 360 278 l 360 200 l 588 200 l 465 74 l 465 13 l 572 13 l 613 -47 l 613 -126 l 596 -143 l 360 -143 l 360 -222 l 631 -222 l 696 -153 l 696 -32 l 624 76 l 576 76 l 696 200 l 696 278 l 360 278 z "},"⅔":{"ha":833,"x_min":28,"x_max":810,"o":"m 64 215 l 810 572 l 775 632 l 28 275 l 64 215 m 82 1082 l 82 1004 l 310 1004 l 188 878 l 188 817 l 294 817 l 335 757 l 335 678 l 318 661 l 82 661 l 82 582 l 353 582 l 418 651 l 418 772 l 346 881 l 299 881 l 418 1004 l 418 1082 l 82 1082 m 568 278 l 338 40 l 413 -68 l 593 -68 l 593 -222 l 676 -222 l 676 -68 l 718 -68 l 718 10 l 676 10 l 676 278 l 568 278 m 438 32 l 593 192 l 593 10 l 451 10 l 438 32 z "},"¼":{"ha":833,"x_min":28,"x_max":810,"o":"m 64 215 l 810 572 l 775 632 l 28 275 l 64 215 m 217 1083 l 88 951 l 133 885 l 208 963 l 208 663 l 82 663 l 82 583 l 417 583 l 417 663 l 293 663 l 293 1083 l 217 1083 m 568 278 l 338 40 l 413 -68 l 593 -68 l 593 -222 l 676 -222 l 676 -68 l 718 -68 l 718 10 l 676 10 l 676 278 l 568 278 m 438 32 l 593 192 l 593 10 l 451 10 l 438 32 z "},"¾":{"ha":833,"x_min":28,"x_max":810,"o":"m 64 215 l 810 572 l 775 632 l 28 275 l 64 215 m 82 1082 l 82 1004 l 310 1004 l 188 878 l 188 817 l 294 817 l 335 757 l 335 678 l 318 661 l 82 661 l 82 582 l 353 582 l 418 651 l 418 772 l 346 881 l 299 881 l 418 1004 l 418 1082 l 82 1082 m 568 278 l 338 40 l 413 -68 l 593 -68 l 593 -222 l 676 -222 l 676 -68 l 718 -68 l 718 10 l 676 10 l 676 278 l 568 278 m 438 32 l 593 192 l 593 10 l 451 10 l 438 32 z "},"⅛":{"ha":833,"x_min":28,"x_max":810,"o":"m 64 215 l 810 572 l 775 632 l 28 275 l 64 215 m 217 1083 l 88 951 l 133 885 l 208 963 l 208 663 l 82 663 l 82 583 l 417 583 l 417 663 l 293 663 l 293 1083 l 217 1083 m 472 272 l 360 156 l 360 93 l 415 11 l 419 11 l 360 -46 l 360 -135 l 424 -228 l 608 -228 l 694 -136 l 694 -57 l 636 31 l 694 92 l 694 189 l 639 272 l 472 272 m 444 108 l 444 132 l 506 194 l 596 194 l 611 174 l 611 115 l 572 78 l 464 78 l 444 108 m 444 -119 l 444 -72 l 513 0 l 563 0 l 611 -72 l 611 -111 l 572 -149 l 464 -149 l 444 -119 z "},"⅜":{"ha":833,"x_min":28,"x_max":810,"o":"m 64 215 l 810 572 l 775 632 l 28 275 l 64 215 m 82 1082 l 82 1004 l 310 1004 l 188 878 l 188 817 l 294 817 l 335 757 l 335 678 l 318 661 l 82 661 l 82 582 l 353 582 l 418 651 l 418 772 l 346 881 l 299 881 l 418 1004 l 418 1082 l 82 1082 m 568 278 l 338 40 l 413 -68 l 593 -68 l 593 -222 l 676 -222 l 676 -68 l 718 -68 l 718 10 l 676 10 l 676 278 l 568 278 m 438 32 l 593 192 l 593 10 l 451 10 l 438 32 z "},"⅝":{"ha":833,"x_min":28,"x_max":810,"o":"m 64 215 l 810 572 l 775 632 l 28 275 l 64 215 m 82 1083 l 82 915 l 124 854 l 293 854 l 335 796 l 335 679 l 317 661 l 82 661 l 82 583 l 353 583 l 418 653 l 418 811 l 335 933 l 169 933 l 167 940 l 167 1006 l 404 1006 l 404 1083 l 82 1083 m 472 272 l 360 156 l 360 93 l 415 11 l 419 11 l 360 -46 l 360 -135 l 424 -228 l 608 -228 l 694 -136 l 694 -57 l 636 31 l 694 92 l 694 189 l 639 272 l 472 272 m 444 108 l 444 132 l 506 194 l 596 194 l 611 174 l 611 115 l 572 78 l 464 78 l 444 108 m 444 -119 l 444 -72 l 513 0 l 563 0 l 611 -72 l 611 -111 l 572 -149 l 464 -149 l 444 -119 z "},"⅞":{"ha":833,"x_min":28,"x_max":810,"o":"m 64 215 l 810 572 l 775 632 l 28 275 l 64 215 m 82 1083 l 82 1006 l 333 1006 l 333 1000 l 138 800 l 138 583 l 221 583 l 221 774 l 417 974 l 417 1083 l 82 1083 m 472 272 l 360 156 l 360 93 l 415 11 l 419 11 l 360 -46 l 360 -135 l 424 -228 l 608 -228 l 694 -136 l 694 -57 l 636 31 l 694 92 l 694 189 l 639 272 l 472 272 m 444 108 l 444 132 l 506 194 l 596 194 l 611 174 l 611 115 l 572 78 l 464 78 l 444 108 m 444 -119 l 444 -72 l 513 0 l 563 0 l 611 -72 l 611 -111 l 572 -149 l 464 -149 l 444 -119 z "},"₀":{"ha":833,"x_min":249,"x_max":583,"o":"m 314 500 l 249 435 l 249 93 l 313 0 l 521 0 l 583 67 l 583 408 l 522 500 l 314 500 m 333 408 l 346 422 l 479 422 l 500 392 l 500 382 l 333 210 l 333 408 m 333 107 l 333 111 l 500 285 l 500 93 l 486 79 l 353 79 l 333 107 z "},"₁":{"ha":833,"x_min":249,"x_max":583,"o":"m 383 500 l 254 368 l 300 301 l 375 379 l 375 79 l 249 79 l 249 0 l 583 0 l 583 79 l 460 79 l 460 500 l 383 500 z "},"₂":{"ha":833,"x_min":247,"x_max":586,"o":"m 317 500 l 247 431 l 292 365 l 349 422 l 475 422 l 508 371 l 251 107 l 251 0 l 586 0 l 586 79 l 335 79 l 335 82 l 586 342 l 586 411 l 526 500 l 317 500 z "},"₃":{"ha":833,"x_min":249,"x_max":585,"o":"m 249 500 l 249 422 l 476 422 l 354 296 l 354 235 l 461 235 l 501 175 l 501 96 l 485 79 l 249 79 l 249 0 l 519 0 l 585 69 l 585 190 l 513 299 l 465 299 l 585 422 l 585 500 l 249 500 z "},"₄":{"ha":833,"x_min":226,"x_max":607,"o":"m 457 500 l 226 263 l 301 154 l 482 154 l 482 0 l 565 0 l 565 154 l 607 154 l 607 232 l 565 232 l 565 500 l 457 500 m 326 254 l 482 414 l 482 232 l 340 232 l 326 254 z "},"₅":{"ha":833,"x_min":249,"x_max":585,"o":"m 249 500 l 249 332 l 290 271 l 460 271 l 501 213 l 501 96 l 483 78 l 249 78 l 249 0 l 519 0 l 585 69 l 585 228 l 501 350 l 336 350 l 333 357 l 333 422 l 571 422 l 571 500 l 249 500 z "},"₆":{"ha":833,"x_min":249,"x_max":583,"o":"m 313 501 l 249 435 l 249 94 l 304 0 l 496 0 l 583 90 l 583 244 l 547 299 l 363 299 l 333 269 l 333 408 l 346 422 l 528 422 l 528 501 l 313 501 m 333 110 l 333 158 l 394 221 l 500 221 l 500 117 l 464 79 l 354 79 l 333 110 z "},"₇":{"ha":833,"x_min":249,"x_max":583,"o":"m 249 500 l 249 422 l 500 422 l 500 417 l 304 217 l 304 0 l 388 0 l 388 190 l 583 390 l 583 500 l 249 500 z "},"₈":{"ha":833,"x_min":249,"x_max":583,"o":"m 361 500 l 249 383 l 249 321 l 304 239 l 308 239 l 249 182 l 249 93 l 313 0 l 497 0 l 583 92 l 583 171 l 525 258 l 583 319 l 583 417 l 528 500 l 361 500 m 333 336 l 333 360 l 394 422 l 485 422 l 500 401 l 500 343 l 461 306 l 353 306 l 333 336 m 333 108 l 333 156 l 401 228 l 451 228 l 500 156 l 500 117 l 461 79 l 353 79 l 333 108 z "},"₉":{"ha":833,"x_min":249,"x_max":583,"o":"m 292 500 l 249 457 l 249 340 l 329 221 l 500 221 l 500 136 l 450 79 l 276 79 l 276 0 l 485 0 l 583 111 l 583 379 l 503 500 l 292 500 m 333 356 l 333 422 l 460 422 l 500 364 l 500 299 l 371 299 l 333 356 z "},"⁰":{"ha":833,"x_min":249,"x_max":583,"o":"m 314 1000 l 249 935 l 249 593 l 313 500 l 521 500 l 583 567 l 583 908 l 522 1000 l 314 1000 m 333 908 l 346 922 l 479 922 l 500 892 l 500 882 l 333 710 l 333 908 m 333 607 l 333 611 l 500 785 l 500 593 l 486 579 l 353 579 l 333 607 z "},"¹":{"ha":833,"x_min":249,"x_max":583,"o":"m 383 1000 l 254 868 l 300 801 l 375 879 l 375 579 l 249 579 l 249 500 l 583 500 l 583 579 l 460 579 l 460 1000 l 383 1000 z "},"²":{"ha":833,"x_min":247,"x_max":586,"o":"m 317 1000 l 247 931 l 292 865 l 349 922 l 475 922 l 508 871 l 251 607 l 251 500 l 586 500 l 586 579 l 335 579 l 335 582 l 586 842 l 586 911 l 526 1000 l 317 1000 z "},"³":{"ha":833,"x_min":249,"x_max":585,"o":"m 249 1000 l 249 922 l 476 922 l 354 796 l 354 735 l 461 735 l 501 675 l 501 596 l 485 579 l 249 579 l 249 500 l 519 500 l 585 569 l 585 690 l 513 799 l 465 799 l 585 922 l 585 1000 l 249 1000 z "},"⁴":{"ha":833,"x_min":226,"x_max":607,"o":"m 457 1000 l 226 763 l 301 654 l 482 654 l 482 500 l 565 500 l 565 654 l 607 654 l 607 732 l 565 732 l 565 1000 l 457 1000 m 326 754 l 482 914 l 482 732 l 340 732 l 326 754 z "},"⁵":{"ha":833,"x_min":249,"x_max":585,"o":"m 249 1000 l 249 832 l 290 771 l 460 771 l 501 713 l 501 596 l 483 578 l 249 578 l 249 500 l 519 500 l 585 569 l 585 728 l 501 850 l 336 850 l 333 857 l 333 922 l 571 922 l 571 1000 l 249 1000 z "},"⁶":{"ha":833,"x_min":249,"x_max":583,"o":"m 313 1003 l 249 936 l 249 596 l 304 501 l 496 501 l 583 592 l 583 746 l 547 800 l 363 800 l 333 771 l 333 910 l 346 924 l 528 924 l 528 1003 l 313 1003 m 333 611 l 333 660 l 394 722 l 500 722 l 500 618 l 464 581 l 354 581 l 333 611 z "},"⁷":{"ha":833,"x_min":249,"x_max":583,"o":"m 249 1000 l 249 922 l 500 922 l 500 917 l 304 717 l 304 500 l 388 500 l 388 690 l 583 890 l 583 1000 l 249 1000 z "},"⁸":{"ha":833,"x_min":249,"x_max":583,"o":"m 361 1000 l 249 883 l 249 821 l 304 739 l 308 739 l 249 682 l 249 593 l 313 500 l 497 500 l 583 592 l 583 671 l 525 758 l 583 819 l 583 917 l 528 1000 l 361 1000 m 333 836 l 333 860 l 394 922 l 485 922 l 500 901 l 500 843 l 461 806 l 353 806 l 333 836 m 333 608 l 333 656 l 401 728 l 451 728 l 500 656 l 500 617 l 461 579 l 353 579 l 333 608 z "},"⁹":{"ha":833,"x_min":249,"x_max":583,"o":"m 292 1000 l 249 957 l 249 840 l 329 721 l 500 721 l 500 636 l 450 579 l 276 579 l 276 500 l 485 500 l 583 611 l 583 879 l 503 1000 l 292 1000 m 333 856 l 333 922 l 460 922 l 500 864 l 500 799 l 371 799 l 333 856 z "},"﻿":{"ha":0,"x_min":0,"x_max":0,"o":""},"\r":{"ha":833,"x_min":0,"x_max":0,"o":""}," ":{"ha":833,"x_min":0,"x_max":0,"o":""}," ":{"ha":833,"x_min":0,"x_max":0,"o":""},".":{"ha":833,"x_min":293,"x_max":540,"o":"m 293 0 l 293 246 l 540 246 l 540 0 l 293 0 z "},",":{"ha":833,"x_min":300,"x_max":533,"o":"m 300 222 l 300 0 l 385 0 l 385 -118 l 313 -193 l 390 -311 l 533 -168 l 533 222 l 300 222 z "},":":{"ha":833,"x_min":300,"x_max":533,"o":"m 300 776 l 533 776 l 533 543 l 300 543 l 300 776 m 300 264 l 533 264 l 533 31 l 300 31 l 300 264 z "},";":{"ha":833,"x_min":300,"x_max":533,"o":"m 300 543 l 300 776 l 533 776 l 533 543 l 300 543 m 300 207 l 300 -10 l 378 -10 l 378 -108 l 310 -179 l 392 -300 l 533 -161 l 533 207 l 300 207 z "},"…":{"ha":833,"x_min":28,"x_max":806,"o":"m 28 0 l 28 185 l 213 185 l 213 0 l 28 0 m 324 0 l 324 185 l 510 185 l 510 0 l 324 0 m 621 0 l 621 185 l 806 185 l 806 0 l 621 0 z "},"!":{"ha":833,"x_min":326,"x_max":507,"o":"m 507 113 l 326 113 l 326 -53 l 507 -53 l 507 113 m 343 279 l 493 279 l 493 1001 l 343 1001 l 343 279 z "},"¡":{"ha":833,"x_min":326,"x_max":507,"o":"m 326 776 l 507 776 l 507 942 l 326 942 l 326 776 m 490 610 l 340 610 l 340 -112 l 490 -112 l 490 610 z "},"?":{"ha":833,"x_min":31,"x_max":803,"o":"m 213 982 l 31 793 l 106 675 l 271 844 l 544 844 l 629 721 l 340 422 l 340 260 l 490 260 l 490 381 l 803 706 l 619 982 l 213 982 m 326 -39 l 507 -39 l 507 126 l 326 126 l 326 -39 z "},"¿":{"ha":833,"x_min":31,"x_max":803,"o":"m 621 -39 l 803 150 l 728 268 l 563 99 l 289 99 l 204 222 l 493 521 l 493 683 l 343 683 l 343 563 l 31 238 l 214 -39 l 621 -39 m 507 982 l 326 982 l 326 817 l 507 817 l 507 982 z "},"·":{"ha":833,"x_min":293,"x_max":540,"o":"m 293 293 l 293 540 l 540 540 l 540 293 l 293 293 z "},"•":{"ha":833,"x_min":292,"x_max":542,"o":"m 364 542 l 292 469 l 292 364 l 364 293 l 467 293 l 542 364 l 542 469 l 467 542 l 364 542 z "},"*":{"ha":833,"x_min":121,"x_max":713,"o":"m 344 750 l 344 567 l 169 622 l 121 482 l 297 425 l 189 276 l 308 189 l 417 338 l 525 189 l 646 276 l 539 425 l 713 482 l 667 622 l 492 567 l 492 750 l 344 750 z "},"#":{"ha":833,"x_min":35,"x_max":799,"o":"m 307 372 l 356 638 l 524 638 l 476 372 l 307 372 m 799 776 l 689 776 l 733 1010 l 592 1010 l 551 776 l 381 776 l 425 1010 l 286 1010 l 243 776 l 108 776 l 108 638 l 217 638 l 168 372 l 35 372 l 35 233 l 143 233 l 99 0 l 240 0 l 282 233 l 449 233 l 407 0 l 546 0 l 590 233 l 725 233 l 725 372 l 615 372 l 665 638 l 799 638 l 799 776 z "},"‾":{"ha":833,"x_min":0,"x_max":833,"o":"m 833 1111 l 0 1111 l 0 1249 l 833 1249 l 833 1111 z "},"/":{"ha":833,"x_min":126,"x_max":707,"o":"m 578 1103 l 707 1060 l 256 -269 l 126 -226 l 578 1103 z "},"\\":{"ha":833,"x_min":126,"x_max":707,"o":"m 256 1103 l 707 -226 l 578 -269 l 126 1060 l 256 1103 z "},"-":{"ha":833,"x_min":161,"x_max":672,"o":"m 672 349 l 161 349 l 161 485 l 672 485 l 672 349 z "},"–":{"ha":833,"x_min":28,"x_max":806,"o":"m 806 349 l 28 349 l 28 485 l 806 485 l 806 349 z "},"—":{"ha":833,"x_min":0,"x_max":833,"o":"m 833 349 l 0 349 l 0 485 l 833 485 l 833 349 z "},"_":{"ha":833,"x_min":56,"x_max":778,"o":"m 778 -207 l 56 -207 l 56 -69 l 778 -69 l 778 -207 z "},"‗":{"ha":833,"x_min":56,"x_max":778,"o":"m 778 -207 l 56 -207 l 56 -69 l 778 -69 l 778 -207 m 778 -418 l 56 -418 l 56 -281 l 778 -281 l 778 -418 z "},"(":{"ha":833,"x_min":171,"x_max":663,"o":"m 557 1157 l 171 758 l 171 75 l 557 -324 l 663 -200 l 339 135 l 339 699 l 663 1033 l 557 1157 z "},")":{"ha":833,"x_min":169,"x_max":664,"o":"m 281 1157 l 169 1035 l 496 699 l 496 135 l 169 -201 l 281 -324 l 664 75 l 664 758 l 281 1157 z "},"{":{"ha":833,"x_min":118,"x_max":715,"o":"m 451 1106 l 371 1021 l 371 678 l 118 417 l 371 156 l 371 -187 l 451 -272 l 715 -272 l 715 -133 l 522 -133 l 522 199 l 310 417 l 522 635 l 522 967 l 715 967 l 715 1106 l 451 1106 z "},"}":{"ha":833,"x_min":118,"x_max":715,"o":"m 118 1106 l 118 967 l 315 967 l 315 635 l 524 417 l 315 199 l 315 -133 l 118 -133 l 118 -272 l 382 -272 l 463 -187 l 463 156 l 715 417 l 463 678 l 463 1021 l 382 1106 l 118 1106 z "},"[":{"ha":833,"x_min":204,"x_max":629,"o":"m 204 1106 l 204 -272 l 629 -272 l 629 -133 l 351 -133 l 351 967 l 629 967 l 629 1106 l 204 1106 z "},"]":{"ha":833,"x_min":203,"x_max":631,"o":"m 203 1106 l 203 964 l 482 964 l 482 -131 l 203 -131 l 203 -272 l 631 -272 l 631 1106 l 203 1106 z "},"‚":{"ha":833,"x_min":300,"x_max":533,"o":"m 300 222 l 300 0 l 385 0 l 385 -118 l 313 -193 l 390 -311 l 533 -168 l 533 222 l 300 222 z "},"„":{"ha":833,"x_min":146,"x_max":688,"o":"m 454 222 l 454 0 l 539 0 l 539 -118 l 467 -193 l 544 -311 l 688 -168 l 688 222 l 454 222 m 146 222 l 146 0 l 231 0 l 231 -118 l 158 -193 l 236 -311 l 379 -168 l 379 222 l 146 222 z "},"“":{"ha":833,"x_min":83,"x_max":633,"o":"m 317 694 l 317 917 l 232 917 l 232 1035 l 304 1108 l 226 1228 l 83 1085 l 83 694 l 317 694 m 633 694 l 633 917 l 549 917 l 549 1035 l 621 1108 l 543 1228 l 400 1085 l 400 694 l 633 694 z "},"”":{"ha":833,"x_min":200,"x_max":750,"o":"m 517 1089 l 517 867 l 601 867 l 601 749 l 529 674 l 607 556 l 750 699 l 750 1089 l 517 1089 m 200 1089 l 200 867 l 285 867 l 285 749 l 213 674 l 290 556 l 433 699 l 433 1089 l 200 1089 z "},"‘":{"ha":833,"x_min":300,"x_max":533,"o":"m 533 651 l 533 874 l 449 874 l 449 992 l 521 1065 l 443 1185 l 300 1042 l 300 651 l 533 651 z "},"’":{"ha":833,"x_min":300,"x_max":533,"o":"m 300 1065 l 300 843 l 385 843 l 385 725 l 313 650 l 390 532 l 533 675 l 533 1065 l 300 1065 z "},"«":{"ha":833,"x_min":117,"x_max":718,"o":"m 718 119 l 525 415 l 718 713 l 638 761 l 388 457 l 388 374 l 638 72 l 718 119 m 447 119 l 254 415 l 447 713 l 367 761 l 117 457 l 117 374 l 367 72 l 447 119 z "},"»":{"ha":833,"x_min":117,"x_max":718,"o":"m 117 119 l 197 72 l 447 374 l 447 457 l 197 761 l 117 713 l 310 415 l 117 119 m 388 119 l 468 72 l 718 374 l 718 457 l 468 761 l 388 713 l 581 415 l 388 119 z "},"‹":{"ha":833,"x_min":251,"x_max":582,"o":"m 582 119 l 389 415 l 582 713 l 501 761 l 251 457 l 251 374 l 501 72 l 582 119 z "},"›":{"ha":833,"x_min":251,"x_max":582,"o":"m 446 415 l 251 119 l 332 72 l 582 375 l 582 457 l 332 761 l 251 713 l 446 415 z "},"\"":{"ha":833,"x_min":197,"x_max":636,"o":"m 197 565 l 347 565 l 347 972 l 197 972 l 197 565 m 486 565 l 636 565 l 636 972 l 486 972 l 486 565 z "},"'":{"ha":833,"x_min":343,"x_max":492,"o":"m 343 565 l 492 565 l 492 972 l 343 972 l 343 565 z "},"@":{"ha":833,"x_min":4,"x_max":829,"o":"m 268 929 l 4 671 l 4 139 l 218 -144 l 633 -144 l 633 -25 l 271 -25 l 135 153 l 135 642 l 313 810 l 543 810 l 699 674 l 699 263 l 633 263 l 633 533 l 521 635 l 361 635 l 214 486 l 214 303 l 326 150 l 728 150 l 829 215 l 829 708 l 596 929 l 268 929 m 338 331 l 338 450 l 400 517 l 496 517 l 496 263 l 383 263 l 338 331 z "},"&":{"ha":833,"x_min":7,"x_max":826,"o":"m 243 1010 l 119 881 l 119 781 l 250 588 l 7 335 l 7 143 l 104 0 l 496 0 l 583 93 l 647 0 l 814 0 l 681 192 l 826 340 l 826 508 l 613 508 l 613 371 l 660 371 l 603 310 l 428 571 l 651 803 l 651 885 l 565 1010 l 243 1010 m 256 824 l 303 872 l 496 872 l 508 851 l 349 689 l 256 824 m 156 169 l 156 290 l 328 469 l 506 208 l 439 138 l 176 138 l 156 169 z "},"¶":{"ha":833,"x_min":72,"x_max":761,"o":"m 200 1065 l 72 935 l 72 488 l 197 301 l 349 301 l 425 346 l 425 -111 l 569 -111 l 569 910 l 658 910 l 658 -111 l 761 -111 l 761 1065 l 200 1065 z "},"§":{"ha":833,"x_min":122,"x_max":711,"o":"m 246 1079 l 129 967 l 129 803 l 189 714 l 126 653 l 126 479 l 242 307 l 528 307 l 560 263 l 560 160 l 542 138 l 261 138 l 217 204 l 122 107 l 190 0 l 604 0 l 710 117 l 710 290 l 658 365 l 711 424 l 711 614 l 607 769 l 321 769 l 278 831 l 278 918 l 308 944 l 533 944 l 597 854 l 692 953 l 604 1079 l 246 1079 m 319 446 l 276 507 l 276 606 l 306 632 l 531 632 l 563 586 l 563 467 l 544 446 l 319 446 z "},"©":{"ha":833,"x_min":25,"x_max":808,"o":"m 278 714 l 567 714 l 667 567 l 596 493 l 514 614 l 322 614 l 278 571 l 278 365 l 333 285 l 524 285 l 607 369 l 664 285 l 568 185 l 279 185 l 167 351 l 167 599 l 278 714 m 251 836 l 25 611 l 25 279 l 251 56 l 576 56 l 808 279 l 808 611 l 576 836 l 251 836 z "},"®":{"ha":833,"x_min":139,"x_max":694,"o":"m 299 972 l 139 811 l 139 575 l 299 417 l 529 417 l 694 575 l 694 811 l 529 972 l 299 972 m 325 874 l 492 874 l 563 783 l 563 738 l 501 663 l 558 590 l 558 524 l 479 524 l 479 582 l 419 658 l 353 658 l 353 524 l 274 524 l 274 822 l 325 874 m 353 801 l 353 704 l 468 704 l 483 756 l 483 772 l 453 801 l 353 801 z "},"™":{"ha":833,"x_min":11,"x_max":822,"o":"m 11 899 l 11 824 l 122 824 l 163 764 l 163 417 l 246 417 l 246 775 l 165 824 l 361 824 l 361 417 l 446 417 l 446 738 l 546 589 l 546 586 l 635 586 l 635 682 l 739 790 l 739 417 l 822 417 l 822 899 l 739 899 l 554 708 l 476 824 l 476 899 l 11 899 z "},"°":{"ha":833,"x_min":258,"x_max":575,"o":"m 349 972 l 258 881 l 258 749 l 349 658 l 481 658 l 575 747 l 575 881 l 481 972 l 349 972 m 389 882 l 443 882 l 483 843 l 483 786 l 443 749 l 389 749 l 350 786 l 350 843 l 389 882 z "},"|":{"ha":833,"x_min":343,"x_max":490,"o":"m 343 -222 l 343 1056 l 490 1056 l 490 -222 l 343 -222 z "},"¦":{"ha":833,"x_min":343,"x_max":490,"o":"m 490 1056 l 343 1056 l 343 569 l 490 569 l 490 1056 m 490 264 l 343 264 l 343 -222 l 490 -222 l 490 264 z "},"†":{"ha":833,"x_min":179,"x_max":654,"o":"m 358 0 l 358 972 l 475 972 l 475 0 l 358 0 m 654 578 l 179 578 l 179 694 l 654 694 l 654 578 z "},"‡":{"ha":833,"x_min":179,"x_max":654,"o":"m 358 0 l 358 972 l 475 972 l 475 0 l 358 0 m 654 578 l 179 578 l 179 694 l 654 694 l 654 578 m 654 235 l 179 235 l 179 351 l 654 351 l 654 235 z "},"Ⓚ":{"ha":833,"x_min":0,"x_max":833,"o":"m 417 0 q 255 33 331 0 q 122 122 179 65 q 33 255 65 179 q 0 417 0 331 q 33 578 0 503 q 122 711 65 654 q 255 801 179 768 q 417 833 331 833 q 578 801 503 833 q 711 711 654 768 q 801 578 768 654 q 833 417 833 503 q 801 255 833 331 q 711 122 768 179 q 578 33 654 65 q 417 0 503 0 m 417 104 q 575 146 504 104 q 688 258 646 188 q 729 417 729 329 q 688 575 729 504 q 575 688 646 646 q 417 729 504 729 q 258 688 329 729 q 146 575 188 646 q 104 417 104 504 q 146 258 104 329 q 258 146 188 188 q 417 104 329 104 m 378 418 l 597 243 l 472 243 l 314 367 l 378 418 m 597 590 l 378 418 l 314 468 l 471 590 l 597 590 m 315 590 l 315 244 l 236 306 l 236 529 l 315 590 z "},"₿":{"ha":833,"x_min":96,"x_max":747,"o":"m 96 972 l 96 0 l 624 0 l 747 76 l 747 367 l 610 569 l 588 569 l 735 724 l 735 865 l 660 972 l 96 972 m 244 835 l 585 835 l 585 767 l 396 569 l 244 569 l 244 835 m 244 432 l 538 432 l 600 344 l 600 138 l 244 138 l 244 432 m 193 878 l 343 878 l 343 1158 l 193 1158 l 193 878 m 443 878 l 593 878 l 593 1158 l 443 1158 l 443 878 m 193 -193 l 343 -193 l 343 83 l 193 83 l 193 -193 m 443 -193 l 593 -193 l 593 83 l 443 83 l 443 -193 z "},"¢":{"ha":833,"x_min":107,"x_max":746,"o":"m 226 758 l 107 635 l 107 176 l 225 0 l 358 0 l 358 -221 l 507 -221 l 507 0 l 633 0 l 743 113 l 669 222 l 579 129 l 303 129 l 256 199 l 256 581 l 290 617 l 567 617 l 650 496 l 746 594 l 636 758 l 507 758 l 507 990 l 358 990 l 358 758 l 226 758 z "},"¤":{"ha":833,"x_min":97,"x_max":736,"o":"m 639 790 l 539 690 l 518 711 l 315 711 l 294 690 l 194 790 l 97 692 l 197 593 l 176 571 l 176 374 l 197 349 l 97 251 l 194 154 l 294 251 l 315 231 l 518 231 l 539 251 l 639 154 l 736 251 l 636 349 l 657 374 l 657 571 l 636 593 l 736 692 l 639 790 m 461 579 l 524 517 l 524 426 l 461 364 l 371 364 l 310 426 l 310 518 l 371 579 l 461 579 z "},"$":{"ha":833,"x_min":89,"x_max":744,"o":"m 575 138 l 235 138 l 183 207 l 89 107 l 163 0 l 346 0 l 346 -194 l 496 -194 l 496 0 l 636 0 l 744 113 l 744 386 l 638 547 l 288 547 l 242 614 l 242 797 l 272 829 l 551 829 l 615 736 l 713 833 l 625 968 l 496 968 l 496 1107 l 346 1107 l 346 968 l 217 968 l 94 840 l 94 589 l 214 410 l 564 410 l 597 363 l 597 156 l 575 138 z "},"€":{"ha":833,"x_min":67,"x_max":767,"o":"m 271 803 l 303 838 l 581 838 l 663 717 l 760 818 l 654 975 l 246 975 l 122 849 l 122 642 l 67 642 l 67 522 l 122 522 l 122 440 l 67 440 l 67 321 l 122 321 l 122 179 l 243 0 l 651 0 l 767 117 l 685 235 l 594 138 l 317 138 l 271 204 l 271 321 l 583 321 l 583 440 l 271 440 l 271 522 l 583 522 l 583 642 l 271 642 l 271 803 z "},"₺":{"ha":833,"x_min":92,"x_max":742,"o":"m 203 1039 l 351 1039 l 351 799 l 576 885 l 576 753 l 351 667 l 351 599 l 574 686 l 574 553 l 351 465 l 351 204 l 396 139 l 521 139 l 663 353 l 742 239 l 582 0 l 324 0 l 203 176 l 203 421 l 94 379 l 94 511 l 203 553 l 203 619 l 92 578 l 92 710 l 203 751 l 203 1039 z "},"£":{"ha":833,"x_min":67,"x_max":767,"o":"m 313 1010 l 190 824 l 190 576 l 94 576 l 94 440 l 190 440 l 190 203 l 144 138 l 67 138 l 67 0 l 765 0 l 765 138 l 310 138 l 340 183 l 340 440 l 606 440 l 606 576 l 340 576 l 340 806 l 388 871 l 619 871 l 619 771 l 767 771 l 767 1010 l 313 1010 z "},"¥":{"ha":833,"x_min":92,"x_max":742,"o":"m 594 972 l 742 972 l 742 718 l 490 457 l 490 0 l 343 0 l 343 447 l 92 821 l 92 972 l 239 972 l 239 843 l 417 579 l 419 579 l 594 763 l 594 972 m 692 472 l 692 353 l 138 353 l 138 472 l 692 472 m 692 281 l 692 161 l 138 161 l 138 281 l 692 281 z "},"+":{"ha":833,"x_min":131,"x_max":703,"o":"m 349 703 l 349 485 l 131 485 l 131 347 l 349 347 l 349 132 l 485 132 l 485 347 l 703 347 l 703 485 l 485 485 l 485 703 l 349 703 z "},"−":{"ha":833,"x_min":147,"x_max":686,"o":"m 686 485 l 147 485 l 147 349 l 686 349 l 686 485 z "},"×":{"ha":833,"x_min":165,"x_max":668,"o":"m 571 668 l 417 515 l 263 668 l 165 571 l 319 417 l 165 264 l 264 167 l 417 319 l 571 165 l 668 263 l 514 417 l 668 569 l 571 668 z "},"÷":{"ha":833,"x_min":147,"x_max":686,"o":"m 686 488 l 147 488 l 147 350 l 686 350 l 686 488 m 382 760 l 335 711 l 335 639 l 382 590 l 451 590 l 501 639 l 501 711 l 451 760 l 382 760 m 382 243 l 335 194 l 335 122 l 382 75 l 451 75 l 503 122 l 503 194 l 451 243 l 382 243 z "},"=":{"ha":833,"x_min":121,"x_max":713,"o":"m 121 625 l 713 625 l 713 488 l 121 488 l 121 625 m 121 336 l 713 336 l 713 199 l 121 199 l 121 336 z "},"≠":{"ha":833,"x_min":121,"x_max":713,"o":"m 668 781 l 288 -6 l 164 53 l 546 839 l 668 781 m 121 625 l 713 625 l 713 488 l 121 488 l 121 625 m 121 336 l 713 336 l 713 199 l 121 199 l 121 336 z "},">":{"ha":833,"x_min":158,"x_max":675,"o":"m 256 917 l 675 511 l 675 436 l 253 28 l 160 128 l 515 474 l 158 815 l 256 917 z "},"<":{"ha":833,"x_min":158,"x_max":675,"o":"m 578 917 l 675 815 l 318 474 l 674 128 l 581 28 l 158 436 l 158 511 l 578 917 z "},"≥":{"ha":833,"x_min":143,"x_max":692,"o":"m 535 597 l 143 419 l 199 296 l 692 517 l 692 679 l 199 896 l 147 768 l 535 597 m 692 226 l 143 221 l 143 74 l 692 74 l 692 226 z "},"≤":{"ha":833,"x_min":142,"x_max":690,"o":"m 299 597 l 686 768 l 635 896 l 142 679 l 142 517 l 635 296 l 690 419 l 299 597 m 142 226 l 142 74 l 690 74 l 690 221 l 142 226 z "},"±":{"ha":833,"x_min":131,"x_max":703,"o":"m 686 211 l 147 211 l 147 74 l 686 74 l 686 211 m 349 856 l 349 638 l 131 638 l 131 500 l 349 500 l 349 285 l 485 285 l 485 500 l 703 500 l 703 638 l 485 638 l 485 856 l 349 856 z "},"≈":{"ha":833,"x_min":104,"x_max":729,"o":"m 658 696 l 729 576 l 554 472 l 301 543 l 175 467 l 104 586 l 279 690 l 535 622 l 658 696 m 658 367 l 729 247 l 554 143 l 301 214 l 175 138 l 104 257 l 279 361 l 535 293 l 658 367 z "},"~":{"ha":833,"x_min":56,"x_max":778,"o":"m 725 526 l 539 436 l 290 528 l 56 415 l 107 307 l 299 399 l 543 306 l 778 418 l 725 526 z "},"¬":{"ha":833,"x_min":121,"x_max":713,"o":"m 713 526 l 121 526 l 121 389 l 563 389 l 563 135 l 713 135 l 713 526 z "},"^":{"ha":833,"x_min":61,"x_max":776,"o":"m 415 1010 l 649 618 l 776 678 l 494 1167 l 336 1167 l 61 685 l 189 622 l 415 1010 z "},"∞":{"ha":833,"x_min":32,"x_max":801,"o":"m 801 611 l 625 781 l 526 781 l 401 694 l 307 781 l 161 781 l 32 694 l 32 406 l 171 275 l 292 275 l 429 368 l 526 275 l 676 275 l 801 360 l 801 611 m 547 664 l 592 664 l 694 565 l 694 417 l 656 392 l 558 392 l 496 456 l 496 631 l 547 664 m 190 664 l 274 664 l 389 554 l 389 469 l 272 392 l 203 392 l 139 456 l 139 631 l 190 664 z "},"∫":{"ha":833,"x_min":67,"x_max":789,"o":"m 789 1256 l 753 1131 l 633 1131 l 550 1042 l 425 -204 l 253 -382 l 67 -382 l 101 -257 l 203 -257 l 286 -168 l 411 1078 l 583 1256 l 789 1256 z "},"∏":{"ha":833,"x_min":57,"x_max":778,"o":"m 778 1024 l 57 1024 l 57 892 l 182 892 l 182 -92 l 308 -74 l 308 892 l 528 892 l 528 -92 l 654 -74 l 654 892 l 778 892 l 778 1024 z "},"∑":{"ha":833,"x_min":99,"x_max":735,"o":"m 735 1039 l 99 1039 l 99 911 l 456 457 l 99 -12 l 99 -137 l 735 -137 l 735 0 l 258 0 l 574 406 l 574 514 l 258 901 l 735 901 l 735 1039 z "},"√":{"ha":833,"x_min":144,"x_max":979,"o":"m 979 1185 l 979 1047 l 803 1047 l 521 0 l 360 0 l 144 518 l 258 579 l 419 193 l 439 193 l 706 1185 l 979 1185 z "},"∂":{"ha":833,"x_min":90,"x_max":743,"o":"m 213 1018 l 169 892 l 308 846 l 435 771 l 549 657 l 572 565 l 421 644 l 189 554 l 90 290 l 188 28 l 424 -74 l 657 28 l 743 290 l 743 435 l 668 718 l 525 867 l 407 951 l 213 1018 m 294 129 l 231 290 l 301 465 l 414 510 l 599 413 l 606 314 l 544 129 l 424 72 l 294 129 z "},"%":{"ha":833,"x_min":0,"x_max":833,"o":"m 131 972 l 57 896 l 57 786 l 131 713 l 239 713 l 317 786 l 317 896 l 239 972 l 131 972 m 713 979 l 0 69 l 118 -24 l 833 893 l 713 979 m 592 260 l 517 185 l 517 75 l 592 0 l 700 0 l 776 75 l 776 185 l 700 260 l 592 260 z "},"‰":{"ha":833,"x_min":0,"x_max":833,"o":"m 131 972 l 57 896 l 57 786 l 131 713 l 239 713 l 317 786 l 317 896 l 239 972 l 131 972 m 774 756 l 0 450 l 54 313 l 833 625 l 774 756 m 592 260 l 517 185 l 517 75 l 592 0 l 700 0 l 776 75 l 776 183 l 700 260 l 592 260 m 243 260 l 168 185 l 168 75 l 243 0 l 351 0 l 428 75 l 428 183 l 351 260 l 243 260 z "},"∀":{"ha":833,"x_min":110,"x_max":724,"o":"m 110 246 l 346 0 l 724 0 l 724 972 l 575 972 l 575 542 l 258 542 l 258 972 l 110 972 l 110 246 m 258 288 l 258 403 l 575 403 l 575 138 l 401 138 l 258 288 z "},"↑":{"ha":833,"x_min":-28,"x_max":861,"o":"m 861 521 l 760 425 l 418 781 l 72 425 l -28 518 l 381 940 l 456 940 l 861 521 m 349 836 l 485 836 l 485 135 l 349 135 l 349 836 z "},"↗":{"ha":833,"x_min":94,"x_max":740,"o":"m 729 138 l 590 140 l 600 635 l 104 628 l 100 764 l 686 774 l 740 721 l 729 138 m 590 724 l 686 626 l 190 131 l 94 226 l 590 724 z "},"→":{"ha":833,"x_min":28,"x_max":833,"o":"m 414 917 l 833 511 l 833 436 l 411 28 l 318 128 l 674 474 l 318 815 l 414 917 m 729 404 l 28 404 l 28 540 l 729 540 l 729 404 z "},"↘":{"ha":833,"x_min":97,"x_max":740,"o":"m 104 156 l 107 294 l 601 285 l 594 781 l 731 785 l 740 199 l 688 144 l 104 156 m 690 294 l 593 199 l 97 694 l 193 790 l 690 294 z "},"↓":{"ha":833,"x_min":-28,"x_max":861,"o":"m -28 475 l 74 571 l 415 215 l 761 571 l 861 478 l 453 56 l 378 56 l -28 475 m 485 160 l 349 160 l 349 861 l 485 861 l 485 160 z "},"↙":{"ha":833,"x_min":111,"x_max":757,"o":"m 122 781 l 261 778 l 251 283 l 747 290 l 751 154 l 165 144 l 111 197 l 122 781 m 261 194 l 165 292 l 661 788 l 757 692 l 261 194 z "},"←":{"ha":833,"x_min":0,"x_max":806,"o":"m 419 917 l 515 815 l 160 474 l 515 128 l 422 28 l 0 436 l 0 511 l 419 917 m 104 404 l 104 540 l 806 540 l 806 404 l 104 404 z "},"↖":{"ha":833,"x_min":111,"x_max":754,"o":"m 747 763 l 744 624 l 250 633 l 257 138 l 121 133 l 111 719 l 164 774 l 747 763 m 161 624 l 258 719 l 754 224 l 658 128 l 161 624 z "},"↔":{"ha":833,"x_min":-22,"x_max":857,"o":"m 207 710 l 303 608 l 136 450 l 303 288 l 211 188 l -22 411 l -22 488 l 207 710 m 54 379 l 54 517 l 788 517 l 788 379 l 54 379 m 632 197 l 535 297 l 697 453 l 538 610 l 631 710 l 857 490 l 857 415 l 632 197 z "},"↕":{"ha":833,"x_min":156,"x_max":678,"o":"m 156 207 l 256 303 l 415 136 l 578 303 l 678 210 l 453 -24 l 378 -24 l 156 207 m 485 54 l 349 54 l 349 786 l 485 786 l 485 54 m 668 631 l 568 535 l 413 697 l 256 538 l 156 631 l 374 856 l 450 856 l 668 631 z "},"◌":{"ha":833,"x_min":-167,"x_max":1000,"o":"m 490 1065 q 454 1069 472 1068 q 417 1069 436 1069 l 414 1069 l 414 1021 l 417 1021 q 451 1020 433 1021 q 483 1017 468 1019 l 490 1065 m 276 1001 q 310 1010 293 1007 q 344 1017 326 1014 l 338 1064 q 301 1058 319 1063 q 264 1049 282 1054 l 276 1001 m 638 1026 q 565 1050 601 1042 l 553 1003 q 586 993 569 999 q 619 981 603 988 l 638 1026 m 147 949 q 178 965 163 957 q 210 979 194 972 l 192 1024 q 156 1008 174 1017 q 124 990 139 1000 l 147 949 m 769 950 q 738 973 754 963 q 706 993 722 983 l 682 950 q 740 913 711 933 l 769 950 m 38 863 q 63 887 50 875 q 90 910 76 899 l 60 947 q 31 924 46 936 q 3 897 17 911 l 38 863 m 878 843 q 853 873 867 858 q 826 900 840 888 l 793 867 q 817 841 806 854 q 839 814 829 828 l 878 843 m -47 751 q -28 781 -39 767 q -8 810 -18 796 l -47 839 q -69 808 -58 825 q -89 776 -79 792 l -47 751 m 954 713 q 939 747 947 731 q 921 781 931 764 l 878 756 q 895 726 888 742 q 910 693 903 710 l 954 713 m -100 622 q -90 656 -96 639 q -78 689 -83 672 l -124 707 q -136 672 -131 689 q -147 635 -142 654 l -100 622 m 994 565 q 989 603 993 585 q 979 640 985 622 l 932 628 q 941 594 938 611 q 946 560 944 576 l 994 565 m -118 486 q -117 520 -118 503 q -114 554 -115 538 l -162 560 q -165 524 -164 542 q -167 486 -167 506 l -167 485 l -118 485 l -118 486 m 996 410 q 999 449 999 429 q 1000 486 1000 468 l 1000 490 l 951 489 l 951 486 q 951 451 951 468 q 947 417 950 433 l 996 410 m -99 346 q -107 380 -104 363 q -112 414 -110 397 l -161 408 q -155 371 -158 390 q -146 333 -151 351 l -99 346 m 956 263 q 969 299 963 281 q 981 335 975 317 l 933 347 q 924 314 929 331 q 911 282 918 297 l 956 263 m -46 217 q -62 248 -54 232 q -76 279 -69 264 l -122 261 q -106 226 -115 243 q -87 193 -97 210 l -46 217 m 879 131 q 902 162 892 146 q 922 194 913 178 l 881 219 q 862 190 871 204 q 842 161 853 175 l 879 131 m 40 107 q 16 133 28 119 q -7 160 4 146 l -44 129 q -21 101 -33 115 q 6 72 -8 86 l 40 107 m 772 24 q 801 47 788 35 q 829 74 815 60 l 794 108 q 770 85 783 96 q 743 63 757 74 l 772 24 m 150 22 q 122 41 136 31 q 92 61 107 51 l 63 22 q 94 1 78 11 q 126 -19 110 -10 l 150 22 m 640 -53 q 710 -19 678 -37 l 685 24 q 653 6 669 14 q 622 -8 638 -1 l 640 -53 m 279 -31 q 246 -21 263 -26 q 214 -8 229 -15 l 194 -54 q 231 -67 213 -61 q 267 -78 249 -72 l 279 -31 m 494 -93 q 532 -87 514 -90 q 568 -78 550 -83 l 556 -31 q 522 -38 539 -35 q 488 -44 506 -42 l 494 -93 m 418 -97 l 417 -49 q 383 -47 400 -49 q 349 -44 365 -46 l 342 -93 q 380 -96 361 -94 q 418 -97 399 -97 z "},"◊":{"ha":833,"x_min":82,"x_max":751,"o":"m 481 997 l 349 997 l 82 497 l 349 0 l 481 0 l 751 500 l 481 997 m 419 865 l 613 497 l 419 128 l 414 128 l 221 497 l 414 865 l 419 865 z "},"─":{"ha":833,"x_min":-7,"x_max":840,"o":"m 840 542 l 840 431 l -7 431 l -7 542 l 840 542 z "},"│":{"ha":833,"x_min":361,"x_max":472,"o":"m 472 1389 l 472 -694 l 361 -694 l 361 1389 l 472 1389 z "},"┌":{"ha":833,"x_min":361,"x_max":840,"o":"m 840 542 l 840 431 l 472 431 l 472 -694 l 361 -694 l 361 542 l 840 542 z "},"┐":{"ha":833,"x_min":-7,"x_max":472,"o":"m 472 542 l 472 -694 l 361 -694 l 361 431 l -7 431 l -7 542 l 472 542 z "},"└":{"ha":833,"x_min":361,"x_max":840,"o":"m 472 1389 l 472 542 l 840 542 l 840 431 l 361 431 l 361 1389 l 472 1389 z "},"┘":{"ha":833,"x_min":-7,"x_max":472,"o":"m 472 1389 l 472 431 l -7 431 l -7 542 l 361 542 l 361 1389 l 472 1389 z "},"├":{"ha":833,"x_min":361,"x_max":840,"o":"m 472 1389 l 472 542 l 840 542 l 840 431 l 472 431 l 472 -694 l 361 -694 l 361 1389 l 472 1389 z "},"┤":{"ha":833,"x_min":-7,"x_max":472,"o":"m 472 1389 l 472 -694 l 361 -694 l 361 431 l -7 431 l -7 542 l 361 542 l 361 1389 l 472 1389 z "},"┬":{"ha":833,"x_min":-7,"x_max":840,"o":"m 840 542 l 840 431 l 472 431 l 472 -694 l 361 -694 l 361 431 l -7 431 l -7 542 l 840 542 z "},"┴":{"ha":833,"x_min":-7,"x_max":840,"o":"m 472 1389 l 472 542 l 840 542 l 840 431 l -7 431 l -7 542 l 361 542 l 361 1389 l 472 1389 z "},"┼":{"ha":833,"x_min":-7,"x_max":840,"o":"m 472 1389 l 472 542 l 840 542 l 840 431 l 472 431 l 472 -694 l 361 -694 l 361 431 l -7 431 l -7 542 l 361 542 l 361 1389 l 472 1389 z "},"̈":{"ha":0,"x_min":194,"x_max":639,"o":"m 194 875 l 194 1028 l 347 1028 l 347 875 l 194 875 m 486 875 l 486 1028 l 639 1028 l 639 875 l 486 875 z "},"̇":{"ha":0,"x_min":329,"x_max":504,"o":"m 329 874 l 329 1049 l 504 1049 l 504 874 l 329 874 z "},"̀":{"ha":0,"x_min":240,"x_max":599,"o":"m 544 851 l 599 936 l 324 1115 l 240 997 l 544 851 z "},"́":{"ha":0,"x_min":235,"x_max":593,"o":"m 289 851 l 593 997 l 510 1115 l 235 936 l 289 851 z "},"̋":{"ha":0,"x_min":144,"x_max":693,"o":"m 233 824 l 438 1092 l 308 1161 l 144 878 l 233 824 m 460 824 l 693 1065 l 574 1150 l 379 886 l 460 824 z "},"̂":{"ha":0,"x_min":172,"x_max":661,"o":"m 454 1106 l 379 1106 l 172 949 l 246 867 l 417 975 l 589 867 l 661 949 l 454 1106 z "},"̌":{"ha":0,"x_min":172,"x_max":661,"o":"m 454 949 l 661 1107 l 589 1188 l 417 1079 l 246 1188 l 172 1107 l 379 949 l 454 949 z "},"̆":{"ha":0,"x_min":156,"x_max":678,"o":"m 156 1011 l 156 1110 l 324 1110 l 324 981 l 510 981 l 510 1110 l 678 1110 l 678 1011 l 528 861 l 307 861 l 156 1011 z "},"̊":{"ha":0,"x_min":258,"x_max":575,"o":"m 349 1111 l 258 1019 l 258 888 l 349 797 l 481 797 l 575 886 l 575 1019 l 481 1111 l 349 1111 m 389 1021 l 443 1021 l 483 981 l 483 925 l 443 888 l 389 888 l 350 925 l 350 981 l 389 1021 z "},"̃":{"ha":0,"x_min":121,"x_max":713,"o":"m 653 1110 l 538 1040 l 282 1108 l 121 1013 l 181 913 l 300 988 l 551 915 l 713 1011 l 653 1110 z "},"̄":{"ha":0,"x_min":217,"x_max":617,"o":"m 617 974 l 217 974 l 217 1111 l 617 1111 l 617 974 z "},"̅":{"ha":0,"x_min":0,"x_max":833,"o":"m 833 1111 l 0 1111 l 0 1249 l 833 1249 l 833 1111 z "},"̍":{"ha":0,"x_min":333,"x_max":500,"o":"m 333 722 l 333 1046 l 500 1046 l 500 722 l 333 722 z "},"̎":{"ha":0,"x_min":194,"x_max":639,"o":"m 194 722 l 194 1046 l 361 1046 l 361 722 l 194 722 m 472 722 l 472 1046 l 639 1046 l 639 722 l 472 722 z "},"̐":{"ha":0,"x_min":156,"x_max":678,"o":"m 156 1011 l 156 1110 l 304 1110 l 304 981 l 529 981 l 529 1110 l 678 1110 l 678 1011 l 528 861 l 307 861 l 156 1011 m 347 1076 l 347 1215 l 486 1215 l 486 1076 l 347 1076 z "},"̒":{"ha":0,"x_min":300,"x_max":492,"o":"m 492 726 l 492 897 l 407 897 l 407 975 l 479 1049 l 401 1126 l 300 1024 l 300 726 l 492 726 z "},"̓":{"ha":0,"x_min":300,"x_max":533,"o":"m 300 1111 l 300 889 l 385 889 l 385 771 l 313 697 l 390 578 l 533 721 l 533 1111 l 300 1111 z "},"̔":{"ha":0,"x_min":300,"x_max":533,"o":"m 533 1111 l 300 1111 l 300 721 l 443 578 l 521 697 l 449 771 l 449 889 l 533 889 l 533 1111 z "},"̖":{"ha":0,"x_min":240,"x_max":599,"o":"m 544 -264 l 599 -179 l 324 0 l 240 -118 l 544 -264 z "},"̗":{"ha":0,"x_min":235,"x_max":593,"o":"m 289 -264 l 593 -118 l 510 0 l 235 -179 l 289 -264 z "},"̣":{"ha":0,"x_min":329,"x_max":504,"o":"m 329 -260 l 329 -83 l 504 -83 l 504 -260 l 329 -260 z "},"̤":{"ha":0,"x_min":194,"x_max":639,"o":"m 194 -226 l 194 -74 l 347 -74 l 347 -226 l 194 -226 m 486 -226 l 486 -74 l 639 -74 l 639 -226 l 486 -226 z "},"̥":{"ha":0,"x_min":258,"x_max":575,"o":"m 349 -74 l 258 -165 l 258 -299 l 349 -389 l 481 -389 l 575 -299 l 575 -165 l 481 -74 l 349 -74 m 389 -165 l 443 -165 l 483 -203 l 483 -260 l 443 -297 l 389 -297 l 350 -260 l 350 -203 l 389 -165 z "},"̦":{"ha":0,"x_min":256,"x_max":546,"o":"m 346 -422 l 546 -153 l 418 -85 l 256 -368 l 346 -422 z "},"̧":{"ha":0,"x_min":329,"x_max":588,"o":"m 329 -182 l 468 -182 l 329 0 l 479 0 l 588 -126 l 588 -197 l 476 -290 l 329 -290 l 329 -182 z "},"̨":{"ha":0,"x_min":288,"x_max":546,"o":"m 546 -182 l 407 -182 l 546 0 l 407 14 l 288 -126 l 288 -197 l 399 -290 l 546 -290 l 546 -182 z "},"̭":{"ha":0,"x_min":172,"x_max":661,"o":"m 454 -74 l 379 -74 l 172 -232 l 246 -312 l 417 -204 l 589 -312 l 661 -232 l 454 -74 z "},"̮":{"ha":0,"x_min":156,"x_max":678,"o":"m 156 -174 l 156 -74 l 324 -74 l 324 -203 l 510 -203 l 510 -74 l 678 -74 l 678 -174 l 528 -324 l 307 -324 l 156 -174 z "},"̱":{"ha":0,"x_min":217,"x_max":617,"o":"m 617 -212 l 217 -212 l 217 -74 l 617 -74 l 617 -212 z "},"̵":{"ha":0,"x_min":236,"x_max":597,"o":"m 597 349 l 236 349 l 236 485 l 597 485 l 597 349 z "},"̶":{"ha":0,"x_min":0,"x_max":833,"o":"m 833 349 l 0 349 l 0 485 l 833 485 l 833 349 z "},"̷":{"ha":0,"x_min":169,"x_max":638,"o":"m 508 897 l 169 -101 l 297 -144 l 638 854 l 508 897 z "},"̸":{"ha":0,"x_min":165,"x_max":707,"o":"m 578 1103 l 707 1060 l 293 -157 l 165 -114 l 578 1103 z "},"¨":{"ha":833,"x_min":176,"x_max":657,"o":"m 176 865 l 176 1046 l 357 1046 l 357 865 l 176 865 m 476 865 l 476 1046 l 657 1046 l 657 865 l 476 865 z "},"˙":{"ha":833,"x_min":329,"x_max":504,"o":"m 329 865 l 329 1042 l 504 1042 l 504 865 l 329 865 z "},"`":{"ha":833,"x_min":240,"x_max":599,"o":"m 544 851 l 599 936 l 324 1115 l 240 997 l 544 851 z "},"´":{"ha":833,"x_min":235,"x_max":593,"o":"m 289 851 l 593 997 l 510 1115 l 235 936 l 289 851 z "},"˝":{"ha":833,"x_min":144,"x_max":693,"o":"m 233 824 l 438 1092 l 308 1161 l 144 878 l 233 824 m 460 824 l 693 1065 l 574 1150 l 379 886 l 460 824 z "},"ˆ":{"ha":833,"x_min":172,"x_max":661,"o":"m 454 1106 l 379 1106 l 172 949 l 246 867 l 417 975 l 589 867 l 661 949 l 454 1106 z "},"ˇ":{"ha":833,"x_min":172,"x_max":661,"o":"m 454 949 l 661 1107 l 589 1188 l 417 1079 l 246 1188 l 172 1107 l 379 949 l 454 949 z "},"˘":{"ha":833,"x_min":156,"x_max":678,"o":"m 156 1011 l 156 1110 l 324 1110 l 324 981 l 510 981 l 510 1110 l 678 1110 l 678 1011 l 528 861 l 307 861 l 156 1011 z "},"˚":{"ha":833,"x_min":258,"x_max":575,"o":"m 349 1111 l 258 1019 l 258 888 l 349 797 l 481 797 l 575 886 l 575 1019 l 481 1111 l 349 1111 m 389 1021 l 443 1021 l 483 981 l 483 925 l 443 888 l 389 888 l 350 925 l 350 981 l 389 1021 z "},"˜":{"ha":833,"x_min":121,"x_max":713,"o":"m 653 1110 l 538 1040 l 282 1108 l 121 1013 l 181 913 l 300 988 l 551 915 l 713 1011 l 653 1110 z "},"¯":{"ha":833,"x_min":217,"x_max":617,"o":"m 617 974 l 217 974 l 217 1111 l 617 1111 l 617 974 z "},"¸":{"ha":833,"x_min":329,"x_max":588,"o":"m 329 -182 l 468 -182 l 329 0 l 479 0 l 588 -126 l 588 -197 l 476 -290 l 329 -290 l 329 -182 z "},"˛":{"ha":833,"x_min":288,"x_max":546,"o":"m 546 -182 l 407 -182 l 546 0 l 396 0 l 288 -126 l 288 -197 l 399 -290 l 546 -290 l 546 -182 z "},"":{"ha":833,"x_min":29,"x_max":833,"o":"m 833 -56 l 140 -56 l 140 1042 l 833 1042 l 833 1143 l 29 1143 l 29 -157 l 833 -157 l 833 -56 z "},"":{"ha":833,"x_min":-10,"x_max":843,"o":"m -10 -56 l -10 -157 l 843 -157 l 843 -56 l -10 -56 m -10 1143 l -10 1042 l 843 1042 l 843 1143 l -10 1143 z "},"":{"ha":833,"x_min":0,"x_max":804,"o":"m 0 -56 l 0 -157 l 804 -157 l 804 1143 l 0 1143 l 0 1042 l 693 1042 l 693 -56 l 0 -56 z "},"":{"ha":833,"x_min":29,"x_max":833,"o":"m 301 894 l 301 75 l 833 75 l 833 894 l 301 894 m 833 -56 l 140 -56 l 140 1042 l 833 1042 l 833 1143 l 29 1143 l 29 -157 l 833 -157 l 833 -56 z "},"":{"ha":833,"x_min":-10,"x_max":843,"o":"m -10 894 l -10 75 l 843 75 l 843 894 l -10 894 m -10 -56 l -10 -157 l 843 -157 l 843 -56 l -10 -56 m -10 1143 l -10 1042 l 843 1042 l 843 1143 l -10 1143 z "},"":{"ha":833,"x_min":0,"x_max":804,"o":"m 532 894 l 0 894 l 0 75 l 532 75 l 532 894 m 0 -56 l 0 -157 l 804 -157 l 804 1143 l 0 1143 l 0 1042 l 693 1042 l 693 -56 l 0 -56 z "}}}
